<?xml version="1.0" encoding="UTF-8" standalone="no"?>
<!DOCTYPE svg PUBLIC "-//W3C//DTD SVG 1.1//EN"
 "http://www.w3.org/Graphics/SVG/1.1/DTD/svg11.dtd">
<!-- Generated by graphviz version 13.1.0 (20250701.0955)
 -->
<!-- Title: ActionMemory Pages: 1 -->
<svg width="290pt" height="220pt"
 viewBox="0.00 0.00 290.00 220.00" xmlns="http://www.w3.org/2000/svg" xmlns:xlink="http://www.w3.org/1999/xlink">
<g id="graph0" class="graph" transform="scale(1 1) rotate(0) translate(4 216)">
<title>ActionMemory</title>
<polygon fill="white" stroke="none" points="-4,4 -4,-216 286.25,-216 286.25,4 -4,4"/>
<g id="clust1" class="cluster">
<title>cluster_action_effect</title>
<polygon fill="#f9f9f9" stroke="black" points="8,-8 8,-204 274.25,-204 274.25,-8 8,-8"/>
<text xml:space="preserve" text-anchor="middle" x="141.12" y="-186.7" font-family="Times New Roman,serif" font-size="14.00">Action&#45;Effect Memory</text>
</g>
<!-- action3 -->
<g id="node1" class="node">
<title>action3</title>
<polygon fill="#f3e5f5" stroke="black" points="80.75,-55.75 16,-55.75 16,-16.25 80.75,-16.25 80.75,-55.75"/>
<text xml:space="preserve" text-anchor="middle" x="48.38" y="-38.45" font-family="Arial" font-size="14.00">Action 3</text>
<text xml:space="preserve" text-anchor="middle" x="48.38" y="-22.7" font-family="Arial" font-size="14.00">&#39;Jump&#39;</text>
</g>
<!-- effect3 -->
<g id="node2" class="node">
<title>effect3</title>
<polygon fill="#f0f0f0" stroke="black" points="260.62,-54 122.38,-54 122.38,-18 260.62,-18 260.62,-54"/>
<text xml:space="preserve" text-anchor="middle" x="191.5" y="-30.57" font-family="Arial" font-size="14.00">Character moves up</text>
</g>
<!-- action3&#45;&gt;effect3 -->
<g id="edge1" class="edge">
<title>action3&#45;&gt;effect3</title>
<path fill="none" stroke="black" d="M81.05,-36C90,-36 100.16,-36 110.61,-36"/>
<polygon fill="black" stroke="black" points="110.49,-39.5 120.49,-36 110.49,-32.5 110.49,-39.5"/>
</g>
<!-- action1 -->
<g id="node3" class="node">
<title>action1</title>
<polygon fill="#f3e5f5" stroke="black" points="80.75,-113.75 16,-113.75 16,-74.25 80.75,-74.25 80.75,-113.75"/>
<text xml:space="preserve" text-anchor="middle" x="48.38" y="-96.45" font-family="Arial" font-size="14.00">Action 1</text>
<text xml:space="preserve" text-anchor="middle" x="48.38" y="-80.7" font-family="Arial" font-size="14.00">&#39;Right&#39;</text>
</g>
<!-- effect1 -->
<g id="node4" class="node">
<title>effect1</title>
<polygon fill="#f0f0f0" stroke="black" points="266.25,-112 116.75,-112 116.75,-76 266.25,-76 266.25,-112"/>
<text xml:space="preserve" text-anchor="middle" x="191.5" y="-88.58" font-family="Arial" font-size="14.00">Character moves right</text>
</g>
<!-- action1&#45;&gt;effect1 -->
<g id="edge2" class="edge">
<title>action1&#45;&gt;effect1</title>
<path fill="none" stroke="black" d="M81.05,-94C88.39,-94 96.56,-94 105.02,-94"/>
<polygon fill="black" stroke="black" points="104.76,-97.5 114.76,-94 104.76,-90.5 104.76,-97.5"/>
</g>
<!-- action5 -->
<g id="node5" class="node">
<title>action5</title>
<polygon fill="#f3e5f5" stroke="black" points="80.75,-171.75 16,-171.75 16,-132.25 80.75,-132.25 80.75,-171.75"/>
<text xml:space="preserve" text-anchor="middle" x="48.38" y="-154.45" font-family="Arial" font-size="14.00">Action 5</text>
<text xml:space="preserve" text-anchor="middle" x="48.38" y="-138.7" font-family="Arial" font-size="14.00">&#39;Wait&#39;</text>
</g>
<!-- effect5 -->
<g id="node6" class="node">
<title>effect5</title>
<polygon fill="#f0f0f0" stroke="black" points="258.38,-170 124.62,-170 124.62,-134 258.38,-134 258.38,-170"/>
<text xml:space="preserve" text-anchor="middle" x="191.5" y="-146.57" font-family="Arial" font-size="14.00">Character stays still</text>
</g>
<!-- action5&#45;&gt;effect5 -->
<g id="edge3" class="edge">
<title>action5&#45;&gt;effect5</title>
<path fill="none" stroke="black" d="M81.05,-152C90.68,-152 101.71,-152 112.99,-152"/>
<polygon fill="black" stroke="black" points="112.78,-155.5 122.78,-152 112.78,-148.5 112.78,-155.5"/>
</g>
</g>
</svg>
