<?xml version="1.0" encoding="UTF-8" standalone="no"?>
<!DOCTYPE svg PUBLIC "-//W3C//DTD SVG 1.1//EN"
 "http://www.w3.org/Graphics/SVG/1.1/DTD/svg11.dtd">
<!-- Generated by graphviz version 13.1.0 (20250701.0955)
 -->
<!-- Title: CausalAttention Pages: 1 -->
<svg width="306pt" height="245pt"
 viewBox="0.00 0.00 306.00 245.00" xmlns="http://www.w3.org/2000/svg" xmlns:xlink="http://www.w3.org/1999/xlink">
<g id="graph0" class="graph" transform="scale(1 1) rotate(0) translate(4 240.5)">
<title>CausalAttention</title>
<polygon fill="white" stroke="none" points="-4,4 -4,-240.5 302,-240.5 302,4 -4,4"/>
<g id="clust1" class="cluster">
<title>cluster_attention_matrix</title>
<polygon fill="#f9f9f9" stroke="black" points="8,-8 8,-228.5 290,-228.5 290,-8 8,-8"/>
<text xml:space="preserve" text-anchor="middle" x="149" y="-211.2" font-family="Times New Roman,serif" font-size="14.00">Attention Matrix (16×16 frames)</text>
</g>
<!-- frame1 -->
<g id="node1" class="node">
<title>frame1</title>
<polygon fill="#e8f5e9" stroke="black" points="93.5,-52 26.5,-52 26.5,-16 93.5,-16 93.5,-52"/>
<text xml:space="preserve" text-anchor="middle" x="60" y="-28.57" font-family="Arial" font-size="14.00">Frame 1</text>
</g>
<!-- frame1&#45;&gt;frame1 -->
<g id="edge1" class="edge">
<title>frame1&#45;&gt;frame1</title>
<path fill="none" stroke="black" d="M93.68,-47.47C103.7,-47.07 111.5,-42.58 111.5,-34 111.5,-29.04 108.89,-25.45 104.76,-23.22"/>
<polygon fill="black" stroke="black" points="105.7,-19.85 95.15,-20.89 104.04,-26.65 105.7,-19.85"/>
</g>
<!-- frame2 -->
<g id="node2" class="node">
<title>frame2</title>
<polygon fill="#e1f5fe" stroke="black" points="103.5,-124 36.5,-124 36.5,-88 103.5,-88 103.5,-124"/>
<text xml:space="preserve" text-anchor="middle" x="70" y="-100.58" font-family="Arial" font-size="14.00">Frame 2</text>
</g>
<!-- frame2&#45;&gt;frame1 -->
<g id="edge2" class="edge">
<title>frame2&#45;&gt;frame1</title>
<path fill="none" stroke="black" d="M67.53,-87.7C66.47,-80.32 65.22,-71.52 64.04,-63.25"/>
<polygon fill="black" stroke="black" points="67.54,-63.01 62.66,-53.6 60.61,-64 67.54,-63.01"/>
</g>
<!-- frame2&#45;&gt;frame2 -->
<g id="edge3" class="edge">
<title>frame2&#45;&gt;frame2</title>
<path fill="none" stroke="black" d="M103.68,-119.47C113.7,-119.07 121.5,-114.58 121.5,-106 121.5,-101.04 118.89,-97.45 114.76,-95.22"/>
<polygon fill="black" stroke="black" points="115.7,-91.85 105.15,-92.89 114.04,-98.65 115.7,-91.85"/>
</g>
<!-- frame3 -->
<g id="node3" class="node">
<title>frame3</title>
<polygon fill="#f3e5f5" stroke="black" points="91.5,-196 24.5,-196 24.5,-160 91.5,-160 91.5,-196"/>
<text xml:space="preserve" text-anchor="middle" x="58" y="-172.57" font-family="Arial" font-size="14.00">Frame 3</text>
</g>
<!-- frame3&#45;&gt;frame1 -->
<g id="edge4" class="edge">
<title>frame3&#45;&gt;frame1</title>
<path fill="none" stroke="black" d="M45.27,-159.85C38.71,-149.92 31.39,-136.88 28,-124 23.92,-108.53 23.71,-103.41 28,-88 30.55,-78.83 35.17,-69.65 40.12,-61.58"/>
<polygon fill="black" stroke="black" points="43.01,-63.56 45.6,-53.29 37.17,-59.7 43.01,-63.56"/>
</g>
<!-- frame3&#45;&gt;frame2 -->
<g id="edge5" class="edge">
<title>frame3&#45;&gt;frame2</title>
<path fill="none" stroke="black" d="M60.97,-159.7C62.23,-152.32 63.74,-143.52 65.16,-135.25"/>
<polygon fill="black" stroke="black" points="68.57,-136.04 66.81,-125.6 61.67,-134.86 68.57,-136.04"/>
</g>
<!-- frame3&#45;&gt;frame3 -->
<g id="edge6" class="edge">
<title>frame3&#45;&gt;frame3</title>
<path fill="none" stroke="black" d="M91.68,-191.47C101.7,-191.07 109.5,-186.58 109.5,-178 109.5,-173.04 106.89,-169.45 102.76,-167.22"/>
<polygon fill="black" stroke="black" points="103.7,-163.85 93.15,-164.89 102.04,-170.65 103.7,-163.85"/>
</g>
<!-- dots -->
<g id="node4" class="node">
<title>dots</title>
<polygon fill="none" stroke="none" points="186,-196 132,-196 132,-160 186,-160 186,-196"/>
<text xml:space="preserve" text-anchor="middle" x="159" y="-172.57" font-family="Arial" font-size="14.00">...</text>
</g>
<!-- previous_frames -->
<g id="node5" class="node">
<title>previous_frames</title>
<polygon fill="#f0f0f0" stroke="black" points="282.38,-124 139.62,-124 139.62,-88 282.38,-88 282.38,-124"/>
<text xml:space="preserve" text-anchor="middle" x="211" y="-100.58" font-family="Arial" font-size="14.00">Previous frames only</text>
</g>
<!-- dots&#45;&gt;previous_frames -->
<g id="edge7" class="edge">
<title>dots&#45;&gt;previous_frames</title>
<path fill="none" stroke="black" d="M171.59,-160.05C177.5,-152.09 184.69,-142.41 191.31,-133.51"/>
<polygon fill="black" stroke="black" points="194.11,-135.6 197.26,-125.49 188.49,-131.43 194.11,-135.6"/>
</g>
<!-- frame16 -->
<g id="node6" class="node">
<title>frame16</title>
<polygon fill="#f0f0f0" stroke="black" points="278.25,-196 203.75,-196 203.75,-160 278.25,-160 278.25,-196"/>
<text xml:space="preserve" text-anchor="middle" x="241" y="-172.57" font-family="Arial" font-size="14.00">Frame 16</text>
</g>
<!-- frame16&#45;&gt;previous_frames -->
<g id="edge8" class="edge">
<title>frame16&#45;&gt;previous_frames</title>
<path fill="none" stroke="black" d="M233.58,-159.7C230.35,-152.15 226.48,-143.12 222.86,-134.68"/>
<polygon fill="black" stroke="black" points="226.08,-133.31 218.93,-125.5 219.65,-136.07 226.08,-133.31"/>
</g>
</g>
</svg>
