<?xml version="1.0" encoding="UTF-8" standalone="no"?>
<!DOCTYPE svg PUBLIC "-//W3C//DTD SVG 1.1//EN"
 "http://www.w3.org/Graphics/SVG/1.1/DTD/svg11.dtd">
<!-- Generated by graphviz version 13.1.0 (20250701.0955)
 -->
<!-- Title: DynamicsModel Pages: 1 -->
<svg width="622pt" height="162pt"
 viewBox="0.00 0.00 622.00 162.00" xmlns="http://www.w3.org/2000/svg" xmlns:xlink="http://www.w3.org/1999/xlink">
<g id="graph0" class="graph" transform="scale(1 1) rotate(0) translate(4 158)">
<title>DynamicsModel</title>
<polygon fill="white" stroke="none" points="-4,4 -4,-158 617.5,-158 617.5,4 -4,4"/>
<g id="clust1" class="cluster">
<title>cluster_dynamics</title>
<polygon fill="#f9f9f9" stroke="black" points="8,-8 8,-146 605.5,-146 605.5,-8 8,-8"/>
<text xml:space="preserve" text-anchor="middle" x="306.75" y="-128.7" font-family="Times New Roman,serif" font-size="14.00">Dynamics Model (MaskGIT)</text>
</g>
<!-- video_tokens -->
<g id="node1" class="node">
<title>video_tokens</title>
<polygon fill="#f0f0f0" stroke="black" points="114.88,-55.75 17.88,-55.75 17.88,-16.25 114.88,-16.25 114.88,-55.75"/>
<text xml:space="preserve" text-anchor="middle" x="66.38" y="-38.45" font-family="Arial" font-size="14.00">Video Tokens</text>
<text xml:space="preserve" text-anchor="middle" x="66.38" y="-22.7" font-family="Arial" font-size="14.00">z₁:ₜ₋₁</text>
</g>
<!-- st_transformer -->
<g id="node3" class="node">
<title>st_transformer</title>
<polygon fill="#fff3e0" stroke="black" points="264,-84.75 152.75,-84.75 152.75,-45.25 264,-45.25 264,-84.75"/>
<text xml:space="preserve" text-anchor="middle" x="208.38" y="-67.45" font-family="Arial" font-size="14.00">ST&#45;Transformer</text>
<text xml:space="preserve" text-anchor="middle" x="208.38" y="-51.7" font-family="Arial" font-size="14.00">Decoder&#45;only</text>
</g>
<!-- video_tokens&#45;&gt;st_transformer -->
<g id="edge1" class="edge">
<title>video_tokens&#45;&gt;st_transformer</title>
<path fill="none" stroke="black" d="M115.16,-45.9C123.63,-47.65 132.58,-49.51 141.44,-51.34"/>
<polygon fill="black" stroke="black" points="140.59,-54.74 151.09,-53.34 142.01,-47.89 140.59,-54.74"/>
</g>
<!-- latent_actions -->
<g id="node2" class="node">
<title>latent_actions</title>
<polygon fill="#f0f0f0" stroke="black" points="116.75,-113.75 16,-113.75 16,-74.25 116.75,-74.25 116.75,-113.75"/>
<text xml:space="preserve" text-anchor="middle" x="66.38" y="-96.45" font-family="Arial" font-size="14.00">Latent Actions</text>
<text xml:space="preserve" text-anchor="middle" x="66.38" y="-80.7" font-family="Arial" font-size="14.00">ã₁:ₜ₋₁</text>
</g>
<!-- latent_actions&#45;&gt;st_transformer -->
<g id="edge2" class="edge">
<title>latent_actions&#45;&gt;st_transformer</title>
<path fill="none" stroke="black" d="M117.13,-83.69C125.02,-82.06 133.28,-80.35 141.47,-78.65"/>
<polygon fill="black" stroke="black" points="141.98,-82.12 151.07,-76.66 140.56,-75.27 141.98,-82.12"/>
</g>
<!-- masked_prediction -->
<g id="node4" class="node">
<title>masked_prediction</title>
<polygon fill="#fce4ec" stroke="black" points="427.75,-83 300,-83 300,-47 427.75,-47 427.75,-83"/>
<text xml:space="preserve" text-anchor="middle" x="363.88" y="-59.58" font-family="Arial" font-size="14.00">Masked Prediction</text>
</g>
<!-- st_transformer&#45;&gt;masked_prediction -->
<g id="edge3" class="edge">
<title>st_transformer&#45;&gt;masked_prediction</title>
<path fill="none" stroke="black" d="M264.36,-65C272.14,-65 280.24,-65 288.31,-65"/>
<polygon fill="black" stroke="black" points="288.14,-68.5 298.14,-65 288.14,-61.5 288.14,-68.5"/>
</g>
<!-- next_tokens -->
<g id="node5" class="node">
<title>next_tokens</title>
<polygon fill="#f0f0f0" stroke="black" points="597.5,-84.75 463.75,-84.75 463.75,-45.25 597.5,-45.25 597.5,-84.75"/>
<text xml:space="preserve" text-anchor="middle" x="530.62" y="-67.45" font-family="Arial" font-size="14.00">Next Frame Tokens</text>
<text xml:space="preserve" text-anchor="middle" x="530.62" y="-51.7" font-family="Arial" font-size="14.00">ẑₜ</text>
</g>
<!-- masked_prediction&#45;&gt;next_tokens -->
<g id="edge4" class="edge">
<title>masked_prediction&#45;&gt;next_tokens</title>
<path fill="none" stroke="black" d="M428.1,-65C435.93,-65 444.01,-65 452.03,-65"/>
<polygon fill="black" stroke="black" points="451.78,-68.5 461.78,-65 451.78,-61.5 451.78,-68.5"/>
</g>
</g>
</svg>
