<?xml version="1.0" encoding="UTF-8" standalone="no"?>
<!DOCTYPE svg PUBLIC "-//W3C//DTD SVG 1.1//EN"
 "http://www.w3.org/Graphics/SVG/1.1/DTD/svg11.dtd">
<!-- Generated by graphviz version 13.1.0 (20250701.0955)
 -->
<!-- Title: FutureMemory Pages: 1 -->
<svg width="560pt" height="164pt"
 viewBox="0.00 0.00 560.00 164.00" xmlns="http://www.w3.org/2000/svg" xmlns:xlink="http://www.w3.org/1999/xlink">
<g id="graph0" class="graph" transform="scale(1 1) rotate(0) translate(4 159.5)">
<title>FutureMemory</title>
<polygon fill="white" stroke="none" points="-4,4 -4,-159.5 556,-159.5 556,4 -4,4"/>
<!-- current -->
<g id="node1" class="node">
<title>current</title>
<polygon fill="#ffcdd2" stroke="black" points="129.25,-95.75 0,-95.75 0,-59.75 129.25,-59.75 129.25,-95.75"/>
<text xml:space="preserve" text-anchor="middle" x="64.62" y="-72.33" font-family="Arial" font-size="14.00">Current: 16 frames</text>
</g>
<!-- future -->
<g id="node2" class="node">
<title>future</title>
<polygon fill="#fff3e0" stroke="black" points="353,-95.75 165.25,-95.75 165.25,-59.75 353,-59.75 353,-95.75"/>
<text xml:space="preserve" text-anchor="middle" x="259.12" y="-72.33" font-family="Arial" font-size="14.00">Future: Hierarchical Memory</text>
</g>
<!-- current&#45;&gt;future -->
<g id="edge1" class="edge">
<title>current&#45;&gt;future</title>
<path fill="none" stroke="black" d="M129.72,-77.75C137.38,-77.75 145.35,-77.75 153.39,-77.75"/>
<polygon fill="black" stroke="black" points="153.28,-81.25 163.28,-77.75 153.28,-74.25 153.28,-81.25"/>
</g>
<!-- short_term -->
<g id="node3" class="node">
<title>short_term</title>
<polygon fill="#c8e6c9" stroke="black" points="544.88,-155.5 396.12,-155.5 396.12,-116 544.88,-116 544.88,-155.5"/>
<text xml:space="preserve" text-anchor="middle" x="470.5" y="-138.2" font-family="Arial" font-size="14.00">Short&#45;term: 16 frames</text>
<text xml:space="preserve" text-anchor="middle" x="470.5" y="-122.45" font-family="Arial" font-size="14.00">detailed motion</text>
</g>
<!-- future&#45;&gt;short_term -->
<g id="edge2" class="edge">
<title>future&#45;&gt;short_term</title>
<path fill="none" stroke="black" d="M326.66,-96.18C345.37,-101.36 365.95,-107.07 385.53,-112.49"/>
<polygon fill="black" stroke="black" points="384.57,-115.86 395.15,-115.15 386.44,-109.11 384.57,-115.86"/>
</g>
<!-- long_term -->
<g id="node4" class="node">
<title>long_term</title>
<polygon fill="#c8e6c9" stroke="black" points="552,-97.5 389,-97.5 389,-58 552,-58 552,-97.5"/>
<text xml:space="preserve" text-anchor="middle" x="470.5" y="-80.2" font-family="Arial" font-size="14.00">Long&#45;term: Compressed</text>
<text xml:space="preserve" text-anchor="middle" x="470.5" y="-64.45" font-family="Arial" font-size="14.00">scene representation</text>
</g>
<!-- future&#45;&gt;long_term -->
<g id="edge3" class="edge">
<title>future&#45;&gt;long_term</title>
<path fill="none" stroke="black" d="M353.48,-77.75C361.4,-77.75 369.4,-77.75 377.3,-77.75"/>
<polygon fill="black" stroke="black" points="377.28,-81.25 387.28,-77.75 377.28,-74.25 377.28,-81.25"/>
</g>
<!-- episodic -->
<g id="node5" class="node">
<title>episodic</title>
<polygon fill="#c8e6c9" stroke="black" points="541.12,-39.5 399.88,-39.5 399.88,0 541.12,0 541.12,-39.5"/>
<text xml:space="preserve" text-anchor="middle" x="470.5" y="-22.2" font-family="Arial" font-size="14.00">Episodic: Key events</text>
<text xml:space="preserve" text-anchor="middle" x="470.5" y="-6.45" font-family="Arial" font-size="14.00">important moments</text>
</g>
<!-- future&#45;&gt;episodic -->
<g id="edge4" class="edge">
<title>future&#45;&gt;episodic</title>
<path fill="none" stroke="black" d="M326.66,-59.32C346.35,-53.86 368.13,-47.83 388.62,-42.15"/>
<polygon fill="black" stroke="black" points="389.36,-45.58 398.07,-39.54 387.5,-38.83 389.36,-45.58"/>
</g>
</g>
</svg>
