<?xml version="1.0" encoding="UTF-8" standalone="no"?>
<!DOCTYPE svg PUBLIC "-//W3C//DTD SVG 1.1//EN"
 "http://www.w3.org/Graphics/SVG/1.1/DTD/svg11.dtd">
<!-- Generated by graphviz version 13.1.0 (20250701.0955)
 -->
<!-- Title: GenieArchitecture Pages: 1 -->
<svg width="334pt" height="501pt"
 viewBox="0.00 0.00 334.00 501.00" xmlns="http://www.w3.org/2000/svg" xmlns:xlink="http://www.w3.org/1999/xlink">
<g id="graph0" class="graph" transform="scale(1 1) rotate(0) translate(4 496.5)">
<title>GenieArchitecture</title>
<polygon fill="white" stroke="none" points="-4,4 -4,-496.5 330.38,-496.5 330.38,4 -4,4"/>
<!-- input -->
<g id="node1" class="node">
<title>input</title>
<polygon fill="#f0f0f0" stroke="black" points="228.38,-492.5 93.88,-492.5 93.88,-453 228.38,-453 228.38,-492.5"/>
<text xml:space="preserve" text-anchor="middle" x="161.12" y="-475.2" font-family="Arial" font-size="14.00">Input Video Frames</text>
<text xml:space="preserve" text-anchor="middle" x="161.12" y="-459.45" font-family="Arial" font-size="14.00">x₁, x₂, ..., xₜ</text>
</g>
<!-- tokenizer -->
<g id="node2" class="node">
<title>tokenizer</title>
<polygon fill="#e1f5fe" stroke="black" points="146.12,-417 34.13,-417 34.13,-377.5 146.12,-377.5 146.12,-417"/>
<text xml:space="preserve" text-anchor="middle" x="90.12" y="-399.7" font-family="Arial" font-size="14.00">Video Tokenizer</text>
<text xml:space="preserve" text-anchor="middle" x="90.12" y="-383.95" font-family="Arial" font-size="14.00">ST&#45;ViViT</text>
</g>
<!-- input&#45;&gt;tokenizer -->
<g id="edge1" class="edge">
<title>input&#45;&gt;tokenizer</title>
<path fill="none" stroke="black" d="M142.84,-452.82C134.79,-444.49 125.17,-434.53 116.38,-425.43"/>
<polygon fill="black" stroke="black" points="119.11,-423.22 109.65,-418.46 114.08,-428.08 119.11,-423.22"/>
</g>
<!-- lam -->
<g id="node3" class="node">
<title>lam</title>
<polygon fill="#f3e5f5" stroke="black" points="306.75,-417 171.5,-417 171.5,-377.5 306.75,-377.5 306.75,-417"/>
<text xml:space="preserve" text-anchor="middle" x="239.12" y="-399.7" font-family="Arial" font-size="14.00">Latent Action Model</text>
<text xml:space="preserve" text-anchor="middle" x="239.12" y="-383.95" font-family="Arial" font-size="14.00">LAM</text>
</g>
<!-- input&#45;&gt;lam -->
<g id="edge2" class="edge">
<title>input&#45;&gt;lam</title>
<path fill="none" stroke="black" d="M181.21,-452.82C190.15,-444.4 200.84,-434.33 210.58,-425.15"/>
<polygon fill="black" stroke="black" points="212.86,-427.81 217.73,-418.41 208.06,-422.72 212.86,-427.81"/>
</g>
<!-- tokens -->
<g id="node5" class="node">
<title>tokens</title>
<polygon fill="#f0f0f0" stroke="black" points="150.25,-341.5 0,-341.5 0,-302 150.25,-302 150.25,-341.5"/>
<text xml:space="preserve" text-anchor="middle" x="75.12" y="-324.2" font-family="Arial" font-size="14.00">Discrete Video Tokens</text>
<text xml:space="preserve" text-anchor="middle" x="75.12" y="-308.45" font-family="Arial" font-size="14.00">z₁, z₂, ..., zₜ</text>
</g>
<!-- tokenizer&#45;&gt;tokens -->
<g id="edge3" class="edge">
<title>tokenizer&#45;&gt;tokens</title>
<path fill="none" stroke="black" d="M86.26,-377.32C84.75,-369.92 82.98,-361.25 81.3,-353.02"/>
<polygon fill="black" stroke="black" points="84.76,-352.45 79.33,-343.35 77.9,-353.85 84.76,-352.45"/>
</g>
<!-- actions -->
<g id="node6" class="node">
<title>actions</title>
<polygon fill="#f0f0f0" stroke="black" points="326.38,-341.5 167.88,-341.5 167.88,-302 326.38,-302 326.38,-341.5"/>
<text xml:space="preserve" text-anchor="middle" x="247.12" y="-324.2" font-family="Arial" font-size="14.00">Latent Actions</text>
<text xml:space="preserve" text-anchor="middle" x="247.12" y="-308.45" font-family="Arial" font-size="14.00">ã₁, ã₂, ..., ãₜ₋₁</text>
</g>
<!-- lam&#45;&gt;actions -->
<g id="edge4" class="edge">
<title>lam&#45;&gt;actions</title>
<path fill="none" stroke="black" d="M241.19,-377.32C241.98,-370.01 242.91,-361.45 243.8,-353.31"/>
<polygon fill="black" stroke="black" points="247.28,-353.69 244.88,-343.37 240.32,-352.94 247.28,-353.69"/>
</g>
<!-- dynamics -->
<g id="node4" class="node">
<title>dynamics</title>
<polygon fill="#fff3e0" stroke="black" points="236.25,-266 86,-266 86,-226.5 236.25,-226.5 236.25,-266"/>
<text xml:space="preserve" text-anchor="middle" x="161.12" y="-248.7" font-family="Arial" font-size="14.00">Dynamics Model</text>
<text xml:space="preserve" text-anchor="middle" x="161.12" y="-232.95" font-family="Arial" font-size="14.00">MaskGIT Transformer</text>
</g>
<!-- next_tokens -->
<g id="node7" class="node">
<title>next_tokens</title>
<polygon fill="#f0f0f0" stroke="black" points="228,-190.5 94.25,-190.5 94.25,-151 228,-151 228,-190.5"/>
<text xml:space="preserve" text-anchor="middle" x="161.12" y="-173.2" font-family="Arial" font-size="14.00">Next Frame Tokens</text>
<text xml:space="preserve" text-anchor="middle" x="161.12" y="-157.45" font-family="Arial" font-size="14.00">ẑₜ₊₁</text>
</g>
<!-- dynamics&#45;&gt;next_tokens -->
<g id="edge7" class="edge">
<title>dynamics&#45;&gt;next_tokens</title>
<path fill="none" stroke="black" d="M161.12,-226.32C161.12,-219.01 161.12,-210.45 161.12,-202.31"/>
<polygon fill="black" stroke="black" points="164.63,-202.38 161.13,-192.38 157.63,-202.38 164.63,-202.38"/>
</g>
<!-- tokens&#45;&gt;dynamics -->
<g id="edge5" class="edge">
<title>tokens&#45;&gt;dynamics</title>
<path fill="none" stroke="black" d="M97.27,-301.82C107.33,-293.23 119.38,-282.92 130.3,-273.59"/>
<polygon fill="black" stroke="black" points="132.28,-276.51 137.6,-267.35 127.73,-271.19 132.28,-276.51"/>
</g>
<!-- actions&#45;&gt;dynamics -->
<g id="edge6" class="edge">
<title>actions&#45;&gt;dynamics</title>
<path fill="none" stroke="black" d="M224.98,-301.82C214.92,-293.23 202.87,-282.92 191.95,-273.59"/>
<polygon fill="black" stroke="black" points="194.52,-271.19 184.65,-267.35 189.97,-276.51 194.52,-271.19"/>
</g>
<!-- decoder -->
<g id="node8" class="node">
<title>decoder</title>
<polygon fill="#e1f5fe" stroke="black" points="213.75,-115 108.5,-115 108.5,-75.5 213.75,-75.5 213.75,-115"/>
<text xml:space="preserve" text-anchor="middle" x="161.12" y="-97.7" font-family="Arial" font-size="14.00">Video Decoder</text>
<text xml:space="preserve" text-anchor="middle" x="161.12" y="-81.95" font-family="Arial" font-size="14.00">ST&#45;ViViT</text>
</g>
<!-- next_tokens&#45;&gt;decoder -->
<g id="edge8" class="edge">
<title>next_tokens&#45;&gt;decoder</title>
<path fill="none" stroke="black" d="M161.12,-150.82C161.12,-143.51 161.12,-134.95 161.12,-126.81"/>
<polygon fill="black" stroke="black" points="164.63,-126.88 161.13,-116.88 157.63,-126.88 164.63,-126.88"/>
</g>
<!-- output -->
<g id="node9" class="node">
<title>output</title>
<polygon fill="#f0f0f0" stroke="black" points="223.12,-39.5 99.12,-39.5 99.12,0 223.12,0 223.12,-39.5"/>
<text xml:space="preserve" text-anchor="middle" x="161.12" y="-22.2" font-family="Arial" font-size="14.00">Generated Frame</text>
<text xml:space="preserve" text-anchor="middle" x="161.12" y="-6.45" font-family="Arial" font-size="14.00">x̂ₜ₊₁</text>
</g>
<!-- decoder&#45;&gt;output -->
<g id="edge9" class="edge">
<title>decoder&#45;&gt;output</title>
<path fill="none" stroke="black" d="M161.12,-75.32C161.12,-68.01 161.12,-59.45 161.12,-51.31"/>
<polygon fill="black" stroke="black" points="164.63,-51.38 161.13,-41.38 157.63,-51.38 164.63,-51.38"/>
</g>
</g>
</svg>
