<?xml version="1.0" encoding="UTF-8" standalone="no"?>
<!DOCTYPE svg PUBLIC "-//W3C//DTD SVG 1.1//EN"
 "http://www.w3.org/Graphics/SVG/1.1/DTD/svg11.dtd">
<!-- Generated by graphviz version 13.1.0 (20250701.0955)
 -->
<!-- Title: InferencePipeline Pages: 1 -->
<svg width="698pt" height="48pt"
 viewBox="0.00 0.00 698.00 48.00" xmlns="http://www.w3.org/2000/svg" xmlns:xlink="http://www.w3.org/1999/xlink">
<g id="graph0" class="graph" transform="scale(1 1) rotate(0) translate(4 43.5)">
<title>InferencePipeline</title>
<polygon fill="white" stroke="none" points="-4,4 -4,-43.5 694,-43.5 694,4 -4,4"/>
<!-- prompt_image -->
<g id="node1" class="node">
<title>prompt_image</title>
<polygon fill="#f0f0f0" stroke="black" points="102.25,-39.5 0,-39.5 0,0 102.25,0 102.25,-39.5"/>
<text xml:space="preserve" text-anchor="middle" x="51.12" y="-22.2" font-family="Arial" font-size="14.00">Prompt Image</text>
<text xml:space="preserve" text-anchor="middle" x="51.12" y="-6.45" font-family="Arial" font-size="14.00">x₁</text>
</g>
<!-- tokenize -->
<g id="node2" class="node">
<title>tokenize</title>
<polygon fill="#e1f5fe" stroke="black" points="207.5,-39.5 138.25,-39.5 138.25,0 207.5,0 207.5,-39.5"/>
<text xml:space="preserve" text-anchor="middle" x="172.88" y="-22.2" font-family="Arial" font-size="14.00">Tokenize</text>
<text xml:space="preserve" text-anchor="middle" x="172.88" y="-6.45" font-family="Arial" font-size="14.00">z₁</text>
</g>
<!-- prompt_image&#45;&gt;tokenize -->
<g id="edge1" class="edge">
<title>prompt_image&#45;&gt;tokenize</title>
<path fill="none" stroke="black" d="M102.56,-19.75C110.46,-19.75 118.58,-19.75 126.35,-19.75"/>
<polygon fill="black" stroke="black" points="126.31,-23.25 136.3,-19.75 126.3,-16.25 126.31,-23.25"/>
</g>
<!-- user_action -->
<g id="node3" class="node">
<title>user_action</title>
<polygon fill="#f0f0f0" stroke="black" points="328.5,-39.5 243.5,-39.5 243.5,0 328.5,0 328.5,-39.5"/>
<text xml:space="preserve" text-anchor="middle" x="286" y="-22.2" font-family="Arial" font-size="14.00">User Action</text>
<text xml:space="preserve" text-anchor="middle" x="286" y="-6.45" font-family="Arial" font-size="14.00">a₁</text>
</g>
<!-- tokenize&#45;&gt;user_action -->
<g id="edge2" class="edge">
<title>tokenize&#45;&gt;user_action</title>
<path fill="none" stroke="black" d="M207.82,-19.75C215.37,-19.75 223.55,-19.75 231.66,-19.75"/>
<polygon fill="black" stroke="black" points="231.51,-23.25 241.51,-19.75 231.51,-16.25 231.51,-23.25"/>
</g>
<!-- dynamics_predict -->
<g id="node4" class="node">
<title>dynamics_predict</title>
<polygon fill="#fff3e0" stroke="black" points="481.75,-39.5 364.5,-39.5 364.5,0 481.75,0 481.75,-39.5"/>
<text xml:space="preserve" text-anchor="middle" x="423.12" y="-22.2" font-family="Arial" font-size="14.00">Dynamics Model</text>
<text xml:space="preserve" text-anchor="middle" x="423.12" y="-6.45" font-family="Arial" font-size="14.00">Predict z₂</text>
</g>
<!-- user_action&#45;&gt;dynamics_predict -->
<g id="edge3" class="edge">
<title>user_action&#45;&gt;dynamics_predict</title>
<path fill="none" stroke="black" d="M328.64,-19.75C336.43,-19.75 344.75,-19.75 353.11,-19.75"/>
<polygon fill="black" stroke="black" points="352.96,-23.25 362.96,-19.75 352.96,-16.25 352.96,-23.25"/>
</g>
<!-- decode -->
<g id="node5" class="node">
<title>decode</title>
<polygon fill="#e1f5fe" stroke="black" points="580.25,-39.5 517.75,-39.5 517.75,0 580.25,0 580.25,-39.5"/>
<text xml:space="preserve" text-anchor="middle" x="549" y="-22.2" font-family="Arial" font-size="14.00">Decode</text>
<text xml:space="preserve" text-anchor="middle" x="549" y="-6.45" font-family="Arial" font-size="14.00">x₂</text>
</g>
<!-- dynamics_predict&#45;&gt;decode -->
<g id="edge4" class="edge">
<title>dynamics_predict&#45;&gt;decode</title>
<path fill="none" stroke="black" d="M482.07,-19.75C490.18,-19.75 498.39,-19.75 506.12,-19.75"/>
<polygon fill="black" stroke="black" points="505.92,-23.25 515.92,-19.75 505.92,-16.25 505.92,-23.25"/>
</g>
<!-- continue -->
<g id="node6" class="node">
<title>continue</title>
<polygon fill="#f0f0f0" stroke="black" points="690,-39.5 616.25,-39.5 616.25,0 690,0 690,-39.5"/>
<text xml:space="preserve" text-anchor="middle" x="653.12" y="-22.2" font-family="Arial" font-size="14.00">Continue</text>
<text xml:space="preserve" text-anchor="middle" x="653.12" y="-6.45" font-family="Arial" font-size="14.00">Iteratively</text>
</g>
<!-- decode&#45;&gt;continue -->
<g id="edge5" class="edge">
<title>decode&#45;&gt;continue</title>
<path fill="none" stroke="black" d="M580.64,-19.75C588.23,-19.75 596.54,-19.75 604.72,-19.75"/>
<polygon fill="black" stroke="black" points="604.6,-23.25 614.6,-19.75 604.6,-16.25 604.6,-23.25"/>
</g>
</g>
</svg>
