<?xml version="1.0" encoding="UTF-8" standalone="no"?>
<!DOCTYPE svg PUBLIC "-//W3C//DTD SVG 1.1//EN"
 "http://www.w3.org/Graphics/SVG/1.1/DTD/svg11.dtd">
<!-- Generated by graphviz version 13.1.0 (20250701.0955)
 -->
<!-- Title: LatentActionModel Pages: 1 -->
<svg width="264pt" height="629pt"
 viewBox="0.00 0.00 264.00 629.00" xmlns="http://www.w3.org/2000/svg" xmlns:xlink="http://www.w3.org/1999/xlink">
<g id="graph0" class="graph" transform="scale(1 1) rotate(0) translate(4 625)">
<title>LatentActionModel</title>
<polygon fill="white" stroke="none" points="-4,4 -4,-625 260,-625 260,4 -4,4"/>
<g id="clust1" class="cluster">
<title>cluster_lam</title>
<polygon fill="#f9f9f9" stroke="black" points="8,-8 8,-613 248,-613 248,-8 8,-8"/>
<text xml:space="preserve" text-anchor="middle" x="128" y="-595.7" font-family="Times New Roman,serif" font-size="14.00">Latent Action Model Training</text>
</g>
<!-- prev_frames -->
<g id="node1" class="node">
<title>prev_frames</title>
<polygon fill="#f0f0f0" stroke="black" points="134.38,-580.5 15.62,-580.5 15.62,-541 134.38,-541 134.38,-580.5"/>
<text xml:space="preserve" text-anchor="middle" x="75" y="-563.2" font-family="Arial" font-size="14.00">Previous Frames</text>
<text xml:space="preserve" text-anchor="middle" x="75" y="-547.45" font-family="Arial" font-size="14.00">x₁:ₜ</text>
</g>
<!-- encoder -->
<g id="node3" class="node">
<title>encoder</title>
<polygon fill="#f3e5f5" stroke="black" points="178.62,-505 67.38,-505 67.38,-465.5 178.62,-465.5 178.62,-505"/>
<text xml:space="preserve" text-anchor="middle" x="123" y="-487.7" font-family="Arial" font-size="14.00">ST&#45;Transformer</text>
<text xml:space="preserve" text-anchor="middle" x="123" y="-471.95" font-family="Arial" font-size="14.00">Encoder</text>
</g>
<!-- prev_frames&#45;&gt;encoder -->
<g id="edge1" class="edge">
<title>prev_frames&#45;&gt;encoder</title>
<path fill="none" stroke="black" d="M87.36,-540.82C92.53,-532.91 98.64,-523.55 104.34,-514.83"/>
<polygon fill="black" stroke="black" points="107.15,-516.92 109.69,-506.64 101.29,-513.1 107.15,-516.92"/>
</g>
<!-- decoder -->
<g id="node7" class="node">
<title>decoder</title>
<polygon fill="#f3e5f5" stroke="black" points="171.62,-203 60.38,-203 60.38,-163.5 171.62,-163.5 171.62,-203"/>
<text xml:space="preserve" text-anchor="middle" x="116" y="-185.7" font-family="Arial" font-size="14.00">ST&#45;Transformer</text>
<text xml:space="preserve" text-anchor="middle" x="116" y="-169.95" font-family="Arial" font-size="14.00">Decoder</text>
</g>
<!-- prev_frames&#45;&gt;decoder -->
<g id="edge6" class="edge">
<title>prev_frames&#45;&gt;decoder</title>
<path fill="none" stroke="black" d="M67.15,-540.84C56.29,-512.9 38,-458.73 38,-410.75 38,-410.75 38,-410.75 38,-333.25 38,-290.83 32.42,-276.09 53,-239 58.97,-228.25 67.9,-218.6 77.18,-210.52"/>
<polygon fill="black" stroke="black" points="79.38,-213.24 84.93,-204.22 74.96,-207.82 79.38,-213.24"/>
</g>
<!-- next_frame -->
<g id="node2" class="node">
<title>next_frame</title>
<polygon fill="#f0f0f0" stroke="black" points="239.62,-580.5 152.38,-580.5 152.38,-541 239.62,-541 239.62,-580.5"/>
<text xml:space="preserve" text-anchor="middle" x="196" y="-563.2" font-family="Arial" font-size="14.00">Next Frame</text>
<text xml:space="preserve" text-anchor="middle" x="196" y="-547.45" font-family="Arial" font-size="14.00">xₜ₊₁</text>
</g>
<!-- next_frame&#45;&gt;encoder -->
<g id="edge2" class="edge">
<title>next_frame&#45;&gt;encoder</title>
<path fill="none" stroke="black" d="M177.2,-540.82C168.92,-532.49 159.04,-522.53 149.99,-513.43"/>
<polygon fill="black" stroke="black" points="152.59,-511.07 143.06,-506.44 147.62,-516 152.59,-511.07"/>
</g>
<!-- loss -->
<g id="node9" class="node">
<title>loss</title>
<ellipse fill="#ffcdd2" stroke="black" cx="128" cy="-34" rx="91.98" ry="18"/>
<text xml:space="preserve" text-anchor="middle" x="128" y="-28.57" font-family="Arial" font-size="14.00">Reconstruction Loss</text>
</g>
<!-- next_frame&#45;&gt;loss -->
<g id="edge9" class="edge">
<title>next_frame&#45;&gt;loss</title>
<path fill="none" stroke="black" stroke-dasharray="5,2" d="M198.54,-540.5C202.07,-512.15 208,-457.46 208,-410.75 208,-410.75 208,-410.75 208,-182.25 208,-140.13 218.72,-124.68 198,-88 191.15,-75.87 180.26,-65.64 169.1,-57.51"/>
<polygon fill="black" stroke="black" points="171.24,-54.73 161,-52.02 167.31,-60.53 171.24,-54.73"/>
</g>
<!-- continuous_actions -->
<g id="node4" class="node">
<title>continuous_actions</title>
<polygon fill="#f0f0f0" stroke="black" points="188.75,-429.5 57.25,-429.5 57.25,-390 188.75,-390 188.75,-429.5"/>
<text xml:space="preserve" text-anchor="middle" x="123" y="-412.2" font-family="Arial" font-size="14.00">Continuous Actions</text>
<text xml:space="preserve" text-anchor="middle" x="123" y="-396.45" font-family="Arial" font-size="14.00">ã₁:ₜ</text>
</g>
<!-- encoder&#45;&gt;continuous_actions -->
<g id="edge3" class="edge">
<title>encoder&#45;&gt;continuous_actions</title>
<path fill="none" stroke="black" d="M123,-465.32C123,-458.01 123,-449.45 123,-441.31"/>
<polygon fill="black" stroke="black" points="126.5,-441.38 123,-431.38 119.5,-441.38 126.5,-441.38"/>
</g>
<!-- vq_quantization -->
<g id="node5" class="node">
<title>vq_quantization</title>
<polygon fill="#ffebee" stroke="black" points="178.25,-354 61.75,-354 61.75,-314.5 178.25,-314.5 178.25,-354"/>
<text xml:space="preserve" text-anchor="middle" x="120" y="-336.7" font-family="Arial" font-size="14.00">VQ Quantization</text>
<text xml:space="preserve" text-anchor="middle" x="120" y="-320.95" font-family="Arial" font-size="14.00">|A|=8 actions</text>
</g>
<!-- continuous_actions&#45;&gt;vq_quantization -->
<g id="edge4" class="edge">
<title>continuous_actions&#45;&gt;vq_quantization</title>
<path fill="none" stroke="black" d="M122.23,-389.82C121.93,-382.51 121.58,-373.95 121.25,-365.81"/>
<polygon fill="black" stroke="black" points="124.75,-365.73 120.84,-355.88 117.75,-366.02 124.75,-365.73"/>
</g>
<!-- discrete_actions -->
<g id="node6" class="node">
<title>discrete_actions</title>
<polygon fill="#f0f0f0" stroke="black" points="174.38,-278.5 61.62,-278.5 61.62,-239 174.38,-239 174.38,-278.5"/>
<text xml:space="preserve" text-anchor="middle" x="118" y="-261.2" font-family="Arial" font-size="14.00">Discrete Actions</text>
<text xml:space="preserve" text-anchor="middle" x="118" y="-245.45" font-family="Arial" font-size="14.00">a₁:ₜ</text>
</g>
<!-- vq_quantization&#45;&gt;discrete_actions -->
<g id="edge5" class="edge">
<title>vq_quantization&#45;&gt;discrete_actions</title>
<path fill="none" stroke="black" d="M119.48,-314.32C119.29,-307.01 119.05,-298.45 118.83,-290.31"/>
<polygon fill="black" stroke="black" points="122.33,-290.28 118.56,-280.38 115.33,-290.47 122.33,-290.28"/>
</g>
<!-- discrete_actions&#45;&gt;decoder -->
<g id="edge7" class="edge">
<title>discrete_actions&#45;&gt;decoder</title>
<path fill="none" stroke="black" d="M117.48,-238.82C117.29,-231.51 117.05,-222.95 116.83,-214.81"/>
<polygon fill="black" stroke="black" points="120.33,-214.78 116.56,-204.88 113.33,-214.97 120.33,-214.78"/>
</g>
<!-- reconstructed_frame -->
<g id="node8" class="node">
<title>reconstructed_frame</title>
<polygon fill="#f0f0f0" stroke="black" points="189.25,-127.5 42.75,-127.5 42.75,-88 189.25,-88 189.25,-127.5"/>
<text xml:space="preserve" text-anchor="middle" x="116" y="-110.2" font-family="Arial" font-size="14.00">Reconstructed Frame</text>
<text xml:space="preserve" text-anchor="middle" x="116" y="-94.45" font-family="Arial" font-size="14.00">x̂ₜ₊₁</text>
</g>
<!-- decoder&#45;&gt;reconstructed_frame -->
<g id="edge8" class="edge">
<title>decoder&#45;&gt;reconstructed_frame</title>
<path fill="none" stroke="black" d="M116,-163.32C116,-156.01 116,-147.45 116,-139.31"/>
<polygon fill="black" stroke="black" points="119.5,-139.38 116,-129.38 112.5,-139.38 119.5,-139.38"/>
</g>
<!-- reconstructed_frame&#45;&gt;loss -->
<g id="edge10" class="edge">
<title>reconstructed_frame&#45;&gt;loss</title>
<path fill="none" stroke="black" stroke-dasharray="5,2" d="M119.22,-87.52C120.45,-80.16 121.88,-71.59 123.23,-63.54"/>
<polygon fill="black" stroke="black" points="126.66,-64.25 124.85,-53.81 119.75,-63.1 126.66,-64.25"/>
</g>
</g>
</svg>
