<?xml version="1.0" encoding="UTF-8" standalone="no"?>
<!DOCTYPE svg PUBLIC "-//W3C//DTD SVG 1.1//EN"
 "http://www.w3.org/Graphics/SVG/1.1/DTD/svg11.dtd">
<!-- Generated by graphviz version 13.1.0 (20250701.0955)
 -->
<!-- Title: MemoryGenerationProcess Pages: 1 -->
<svg width="548pt" height="613pt"
 viewBox="0.00 0.00 548.00 613.00" xmlns="http://www.w3.org/2000/svg" xmlns:xlink="http://www.w3.org/1999/xlink">
<g id="graph0" class="graph" transform="scale(1 1) rotate(0) translate(4 608.5)">
<title>MemoryGenerationProcess</title>
<polygon fill="white" stroke="none" points="-4,4 -4,-608.5 544,-608.5 544,4 -4,4"/>
<g id="clust1" class="cluster">
<title>cluster_process</title>
<polygon fill="#f9f9f9" stroke="black" points="114,-8 114,-541.5 408,-541.5 408,-8 114,-8"/>
<text xml:space="preserve" text-anchor="middle" x="261" y="-524.2" font-family="Times New Roman,serif" font-size="14.00">Generation Process</text>
</g>
<!-- user -->
<g id="node1" class="node">
<title>user</title>
<polygon fill="#e3f2fd" stroke="black" points="281,-604.5 227,-604.5 227,-568.5 281,-568.5 281,-604.5"/>
<text xml:space="preserve" text-anchor="middle" x="254" y="-581.08" font-family="Arial" font-size="14.00">User</text>
</g>
<!-- step1 -->
<g id="node5" class="node">
<title>step1</title>
<polygon fill="#f0f0f0" stroke="black" points="279.5,-509 122.5,-509 122.5,-473 279.5,-473 279.5,-509"/>
<text xml:space="preserve" text-anchor="middle" x="201" y="-485.57" font-family="Arial" font-size="14.00">1. Provides initial frame</text>
</g>
<!-- user&#45;&gt;step1 -->
<g id="edge8" class="edge">
<title>user&#45;&gt;step1</title>
<path fill="none" stroke="black" d="M244.28,-568.35C236.48,-554.6 225.4,-535.04 216.4,-519.16"/>
<polygon fill="black" stroke="black" points="219.56,-517.65 211.59,-510.67 213.47,-521.1 219.56,-517.65"/>
</g>
<!-- step2 -->
<g id="node6" class="node">
<title>step2</title>
<polygon fill="#f0f0f0" stroke="black" points="360.25,-434.25 141.75,-434.25 141.75,-398.25 360.25,-398.25 360.25,-434.25"/>
<text xml:space="preserve" text-anchor="middle" x="251" y="-410.82" font-family="Arial" font-size="14.00">2. Takes action (e.g., &#39;move right&#39;)</text>
</g>
<!-- user&#45;&gt;step2 -->
<g id="edge10" class="edge">
<title>user&#45;&gt;step2</title>
<path fill="none" stroke="black" d="M272.08,-568.36C278.75,-560.84 285.52,-551.45 289,-541.5 299.04,-512.76 297.97,-502.09 289,-473 285.76,-462.48 279.77,-452.17 273.49,-443.33"/>
<polygon fill="black" stroke="black" points="276.44,-441.42 267.6,-435.58 270.87,-445.66 276.44,-441.42"/>
</g>
<!-- memory_buffer -->
<g id="node2" class="node">
<title>memory_buffer</title>
<polygon fill="#fff3e0" stroke="black" points="106,-436 0,-436 0,-396.5 106,-396.5 106,-436"/>
<text xml:space="preserve" text-anchor="middle" x="53" y="-418.7" font-family="Arial" font-size="14.00">Memory Buffer</text>
<text xml:space="preserve" text-anchor="middle" x="53" y="-402.95" font-family="Arial" font-size="14.00">(16 frames)</text>
</g>
<!-- step3 -->
<g id="node7" class="node">
<title>step3</title>
<polygon fill="#f0f0f0" stroke="black" points="395.88,-359.5 142.12,-359.5 142.12,-323.5 395.88,-323.5 395.88,-359.5"/>
<text xml:space="preserve" text-anchor="middle" x="269" y="-336.07" font-family="Arial" font-size="14.00">3. Sends last 16 frames + action history</text>
</g>
<!-- memory_buffer&#45;&gt;step3 -->
<g id="edge11" class="edge">
<title>memory_buffer&#45;&gt;step3</title>
<path fill="none" stroke="black" d="M106.39,-397.27C136.81,-387.02 175.07,-374.14 206.84,-363.44"/>
<polygon fill="black" stroke="black" points="207.54,-366.89 215.9,-360.38 205.31,-360.26 207.54,-366.89"/>
</g>
<!-- model -->
<g id="node3" class="node">
<title>model</title>
<polygon fill="#f3e5f5" stroke="black" points="525,-359.5 431,-359.5 431,-323.5 525,-323.5 525,-359.5"/>
<text xml:space="preserve" text-anchor="middle" x="478" y="-336.07" font-family="Arial" font-size="14.00">Genie Model</text>
</g>
<!-- step4 -->
<g id="node8" class="node">
<title>step4</title>
<polygon fill="#f0f0f0" stroke="black" points="400.12,-286.5 141.88,-286.5 141.88,-250.5 400.12,-250.5 400.12,-286.5"/>
<text xml:space="preserve" text-anchor="middle" x="271" y="-263.07" font-family="Arial" font-size="14.00">4. Processes spatial + temporal patterns</text>
</g>
<!-- model&#45;&gt;step4 -->
<g id="edge13" class="edge">
<title>model&#45;&gt;step4</title>
<path fill="none" stroke="black" d="M430.51,-324.21C401.47,-314.25 364.01,-301.4 332.68,-290.66"/>
<polygon fill="black" stroke="black" points="333.91,-287.38 323.32,-287.44 331.64,-294 333.91,-287.38"/>
</g>
<!-- output -->
<g id="node4" class="node">
<title>output</title>
<polygon fill="#e8f5e8" stroke="black" points="540,-198 416,-198 416,-162 540,-162 540,-198"/>
<text xml:space="preserve" text-anchor="middle" x="478" y="-174.57" font-family="Arial" font-size="14.00">Generated Frame</text>
</g>
<!-- step6 -->
<g id="node10" class="node">
<title>step6</title>
<polygon fill="#f0f0f0" stroke="black" points="358.75,-125 167.25,-125 167.25,-89 358.75,-89 358.75,-125"/>
<text xml:space="preserve" text-anchor="middle" x="263" y="-101.58" font-family="Arial" font-size="14.00">6. New frame added to buffer</text>
</g>
<!-- output&#45;&gt;step6 -->
<g id="edge16" class="edge">
<title>output&#45;&gt;step6</title>
<path fill="none" stroke="black" d="M425.13,-161.54C395.32,-151.7 357.88,-139.33 326.49,-128.97"/>
<polygon fill="black" stroke="black" points="327.7,-125.68 317.1,-125.87 325.5,-132.33 327.7,-125.68"/>
</g>
<!-- step1&#45;&gt;memory_buffer -->
<g id="edge9" class="edge">
<title>step1&#45;&gt;memory_buffer</title>
<path fill="none" stroke="black" d="M165.55,-472.57C146.6,-463.26 122.98,-451.65 102.27,-441.47"/>
<polygon fill="black" stroke="black" points="103.94,-438.39 93.42,-437.12 100.85,-444.67 103.94,-438.39"/>
</g>
<!-- step1&#45;&gt;step2 -->
<g id="edge1" class="edge">
<title>step1&#45;&gt;step2</title>
<path fill="none" stroke="black" d="M212.85,-472.76C218.78,-464.12 226.1,-453.48 232.73,-443.83"/>
<polygon fill="black" stroke="black" points="235.43,-446.09 238.21,-435.87 229.66,-442.13 235.43,-446.09"/>
</g>
<!-- step2&#45;&gt;step3 -->
<g id="edge2" class="edge">
<title>step2&#45;&gt;step3</title>
<path fill="none" stroke="black" d="M255.27,-398.01C257.27,-389.91 259.71,-380.05 261.97,-370.9"/>
<polygon fill="black" stroke="black" points="265.33,-371.89 264.34,-361.34 258.54,-370.2 265.33,-371.89"/>
</g>
<!-- step3&#45;&gt;model -->
<g id="edge12" class="edge">
<title>step3&#45;&gt;model</title>
<path fill="none" stroke="black" d="M396.36,-341.5C404.07,-341.5 411.79,-341.5 419.5,-341.5"/>
<polygon fill="black" stroke="black" points="419.29,-345 429.29,-341.5 419.29,-338 419.29,-345"/>
</g>
<!-- step3&#45;&gt;step4 -->
<g id="edge3" class="edge">
<title>step3&#45;&gt;step4</title>
<path fill="none" stroke="black" d="M269.48,-323.31C269.7,-315.64 269.96,-306.39 270.2,-297.74"/>
<polygon fill="black" stroke="black" points="273.69,-298.14 270.48,-288.04 266.7,-297.94 273.69,-298.14"/>
</g>
<!-- step5 -->
<g id="node9" class="node">
<title>step5</title>
<polygon fill="#f0f0f0" stroke="black" points="352.5,-198 189.5,-198 189.5,-162 352.5,-162 352.5,-198"/>
<text xml:space="preserve" text-anchor="middle" x="271" y="-174.57" font-family="Arial" font-size="14.00">5. Generates next frame</text>
</g>
<!-- step4&#45;&gt;step5 -->
<g id="edge4" class="edge">
<title>step4&#45;&gt;step5</title>
<path fill="none" stroke="black" d="M265.5,-250.41C264.22,-238.76 263.92,-223.05 264.61,-209.52"/>
<polygon fill="black" stroke="black" points="268.08,-210.1 265.35,-199.86 261.1,-209.56 268.08,-210.1"/>
</g>
<!-- step4&#45;&gt;step5 -->
<g id="edge14" class="edge">
<title>step4&#45;&gt;step5</title>
<path fill="none" stroke="black" d="M276.5,-250.41C277.78,-238.76 278.08,-223.05 277.39,-209.52"/>
<polygon fill="black" stroke="black" points="280.9,-209.56 276.65,-199.86 273.92,-210.1 280.9,-209.56"/>
</g>
<!-- step5&#45;&gt;output -->
<g id="edge15" class="edge">
<title>step5&#45;&gt;output</title>
<path fill="none" stroke="black" d="M352.67,-180C369.94,-180 387.21,-180 404.48,-180"/>
<polygon fill="black" stroke="black" points="404.31,-183.5 414.31,-180 404.31,-176.5 404.31,-183.5"/>
</g>
<!-- step5&#45;&gt;step6 -->
<g id="edge5" class="edge">
<title>step5&#45;&gt;step6</title>
<path fill="none" stroke="black" d="M269.06,-161.81C268.2,-154.14 267.16,-144.89 266.18,-136.24"/>
<polygon fill="black" stroke="black" points="269.69,-136.08 265.09,-126.53 262.73,-136.86 269.69,-136.08"/>
</g>
<!-- step6&#45;&gt;memory_buffer -->
<g id="edge17" class="edge">
<title>step6&#45;&gt;memory_buffer</title>
<path fill="none" stroke="black" d="M167.87,-125.43C117.93,-137.4 67,-155.39 67,-179 67,-342.5 67,-342.5 67,-342.5 67,-356.68 64.4,-372.14 61.45,-385.15"/>
<polygon fill="black" stroke="black" points="58.06,-384.28 59.06,-394.83 64.85,-385.96 58.06,-384.28"/>
</g>
<!-- step7 -->
<g id="node11" class="node">
<title>step7</title>
<polygon fill="#f0f0f0" stroke="black" points="383.62,-52 128.38,-52 128.38,-16 383.62,-16 383.62,-52"/>
<text xml:space="preserve" text-anchor="middle" x="256" y="-28.57" font-family="Arial" font-size="14.00">7. Oldest frame discarded if &gt;16 frames</text>
</g>
<!-- step6&#45;&gt;step7 -->
<g id="edge6" class="edge">
<title>step6&#45;&gt;step7</title>
<path fill="none" stroke="black" d="M261.31,-88.81C260.55,-81.14 259.64,-71.89 258.78,-63.24"/>
<polygon fill="black" stroke="black" points="262.29,-63.14 257.83,-53.54 255.33,-63.83 262.29,-63.14"/>
</g>
<!-- step7&#45;&gt;step2 -->
<g id="edge7" class="edge">
<title>step7&#45;&gt;step2</title>
<path fill="none" stroke="black" stroke-dasharray="5,2" d="M204.61,-52.49C187.22,-60.89 169.36,-72.76 158,-89 116.37,-148.52 138.57,-178.08 133,-250.5 129.28,-298.8 107.07,-318.58 133,-359.5 142.25,-374.1 156.47,-384.95 171.87,-392.99"/>
<polygon fill="black" stroke="black" points="170.22,-396.08 180.75,-397.22 173.23,-389.76 170.22,-396.08"/>
<text xml:space="preserve" text-anchor="middle" x="145.97" y="-219.2" font-family="Times New Roman,serif" font-size="14.00">loop</text>
</g>
</g>
</svg>
