<?xml version="1.0" encoding="UTF-8" standalone="no"?>
<!DOCTYPE svg PUBLIC "-//W3C//DTD SVG 1.1//EN"
 "http://www.w3.org/Graphics/SVG/1.1/DTD/svg11.dtd">
<!-- Generated by graphviz version 13.1.0 (20250701.0955)
 -->
<!-- Title: MemoryArchitecture Pages: 1 -->
<svg width="249pt" height="631pt"
 viewBox="0.00 0.00 249.00 631.00" xmlns="http://www.w3.org/2000/svg" xmlns:xlink="http://www.w3.org/1999/xlink">
<g id="graph0" class="graph" transform="scale(1 1) rotate(0) translate(4 627)">
<title>MemoryArchitecture</title>
<polygon fill="white" stroke="none" points="-4,4 -4,-627 245,-627 245,4 -4,4"/>
<g id="clust1" class="cluster">
<title>cluster_memory_window</title>
<polygon fill="#f9f9f9" stroke="black" points="52,-247 52,-615 233,-615 233,-247 52,-247"/>
<text xml:space="preserve" text-anchor="middle" x="142.5" y="-597.7" font-family="Times New Roman,serif" font-size="14.00">Memory Window (16 frames)</text>
</g>
<g id="clust2" class="cluster">
<title>cluster_memory_processing</title>
<polygon fill="#f5f5f5" stroke="black" points="8,-8 8,-239 220,-239 220,-8 8,-8"/>
<text xml:space="preserve" text-anchor="middle" x="114" y="-221.7" font-family="Times New Roman,serif" font-size="14.00">Memory Processing</text>
</g>
<!-- frame_t15 -->
<g id="node1" class="node">
<title>frame_t15</title>
<polygon fill="#f0f0f0" stroke="black" points="155.38,-582.5 72.62,-582.5 72.62,-546.5 155.38,-546.5 155.38,-582.5"/>
<text xml:space="preserve" text-anchor="middle" x="114" y="-559.08" font-family="Arial" font-size="14.00">Frame t&#45;15</text>
</g>
<!-- frame_t14 -->
<g id="node2" class="node">
<title>frame_t14</title>
<polygon fill="#f0f0f0" stroke="black" points="155.38,-510.5 72.62,-510.5 72.62,-474.5 155.38,-474.5 155.38,-510.5"/>
<text xml:space="preserve" text-anchor="middle" x="114" y="-487.07" font-family="Arial" font-size="14.00">Frame t&#45;14</text>
</g>
<!-- frame_t15&#45;&gt;frame_t14 -->
<g id="edge1" class="edge">
<title>frame_t15&#45;&gt;frame_t14</title>
<path fill="none" stroke="black" d="M114,-546.2C114,-538.91 114,-530.23 114,-522.04"/>
<polygon fill="black" stroke="black" points="117.5,-522.12 114,-512.12 110.5,-522.12 117.5,-522.12"/>
</g>
<!-- dots1 -->
<g id="node3" class="node">
<title>dots1</title>
<polygon fill="none" stroke="none" points="141,-438.5 87,-438.5 87,-402.5 141,-402.5 141,-438.5"/>
<text xml:space="preserve" text-anchor="middle" x="114" y="-415.07" font-family="Arial" font-size="14.00">...</text>
</g>
<!-- frame_t14&#45;&gt;dots1 -->
<g id="edge2" class="edge">
<title>frame_t14&#45;&gt;dots1</title>
<path fill="none" stroke="black" d="M114,-474.2C114,-466.71 114,-457.76 114,-449.38"/>
<polygon fill="black" stroke="black" points="117.5,-449.64 114,-439.64 110.5,-449.64 117.5,-449.64"/>
</g>
<!-- frame_t1 -->
<g id="node4" class="node">
<title>frame_t1</title>
<polygon fill="#f0f0f0" stroke="black" points="151.62,-366.5 76.38,-366.5 76.38,-330.5 151.62,-330.5 151.62,-366.5"/>
<text xml:space="preserve" text-anchor="middle" x="114" y="-343.07" font-family="Arial" font-size="14.00">Frame t&#45;1</text>
</g>
<!-- dots1&#45;&gt;frame_t1 -->
<g id="edge3" class="edge">
<title>dots1&#45;&gt;frame_t1</title>
<path fill="none" stroke="black" d="M114,-402.55C114,-395.18 114,-386.34 114,-378.01"/>
<polygon fill="black" stroke="black" points="117.5,-378.29 114,-368.29 110.5,-378.29 117.5,-378.29"/>
</g>
<!-- frame_t -->
<g id="node5" class="node">
<title>frame_t</title>
<polygon fill="#ffeb3b" stroke="black" points="145.62,-294.5 82.38,-294.5 82.38,-255 145.62,-255 145.62,-294.5"/>
<text xml:space="preserve" text-anchor="middle" x="114" y="-277.2" font-family="Arial" font-size="14.00">Frame t</text>
<text xml:space="preserve" text-anchor="middle" x="114" y="-261.45" font-family="Arial" font-size="14.00">Current</text>
</g>
<!-- frame_t1&#45;&gt;frame_t -->
<g id="edge4" class="edge">
<title>frame_t1&#45;&gt;frame_t</title>
<path fill="none" stroke="black" d="M114,-330.13C114,-323 114,-314.52 114,-306.41"/>
<polygon fill="black" stroke="black" points="117.5,-306.49 114,-296.49 110.5,-306.49 117.5,-306.49"/>
</g>
<!-- spatial_memory -->
<g id="node6" class="node">
<title>spatial_memory</title>
<polygon fill="#e8f5e9" stroke="black" points="186.12,-206.5 41.88,-206.5 41.88,-167 186.12,-167 186.12,-206.5"/>
<text xml:space="preserve" text-anchor="middle" x="114" y="-189.2" font-family="Arial" font-size="14.00">Spatial Memory</text>
<text xml:space="preserve" text-anchor="middle" x="114" y="-173.45" font-family="Arial" font-size="14.00">What&#39;s in each frame</text>
</g>
<!-- frame_t&#45;&gt;spatial_memory -->
<g id="edge7" class="edge">
<title>frame_t&#45;&gt;spatial_memory</title>
<path fill="none" stroke="black" d="M114,-254.66C114,-243.98 114,-230.4 114,-218.27"/>
<polygon fill="black" stroke="black" points="117.5,-218.3 114,-208.3 110.5,-218.3 117.5,-218.3"/>
</g>
<!-- temporal_memory -->
<g id="node7" class="node">
<title>temporal_memory</title>
<polygon fill="#e1f5fe" stroke="black" points="209.38,-131 18.62,-131 18.62,-91.5 209.38,-91.5 209.38,-131"/>
<text xml:space="preserve" text-anchor="middle" x="114" y="-113.7" font-family="Arial" font-size="14.00">Temporal Memory</text>
<text xml:space="preserve" text-anchor="middle" x="114" y="-97.95" font-family="Arial" font-size="14.00">How things change over time</text>
</g>
<!-- spatial_memory&#45;&gt;temporal_memory -->
<g id="edge5" class="edge">
<title>spatial_memory&#45;&gt;temporal_memory</title>
<path fill="none" stroke="black" d="M114,-166.82C114,-159.51 114,-150.95 114,-142.81"/>
<polygon fill="black" stroke="black" points="117.5,-142.88 114,-132.88 110.5,-142.88 117.5,-142.88"/>
</g>
<!-- action_memory -->
<g id="node8" class="node">
<title>action_memory</title>
<polygon fill="#f3e5f5" stroke="black" points="212.38,-55.5 15.62,-55.5 15.62,-16 212.38,-16 212.38,-55.5"/>
<text xml:space="preserve" text-anchor="middle" x="114" y="-38.2" font-family="Arial" font-size="14.00">Action Memory</text>
<text xml:space="preserve" text-anchor="middle" x="114" y="-22.45" font-family="Arial" font-size="14.00">What actions caused changes</text>
</g>
<!-- temporal_memory&#45;&gt;action_memory -->
<g id="edge6" class="edge">
<title>temporal_memory&#45;&gt;action_memory</title>
<path fill="none" stroke="black" d="M114,-91.32C114,-84.01 114,-75.45 114,-67.31"/>
<polygon fill="black" stroke="black" points="117.5,-67.38 114,-57.38 110.5,-67.38 117.5,-67.38"/>
</g>
</g>
</svg>
