<?xml version="1.0" encoding="UTF-8" standalone="no"?>
<!DOCTYPE svg PUBLIC "-//W3C//DTD SVG 1.1//EN"
 "http://www.w3.org/Graphics/SVG/1.1/DTD/svg11.dtd">
<!-- Generated by graphviz version 13.1.0 (20250701.0955)
 -->
<!-- Title: MemoryLimitations Pages: 1 -->
<svg width="256pt" height="331pt"
 viewBox="0.00 0.00 256.00 331.00" xmlns="http://www.w3.org/2000/svg" xmlns:xlink="http://www.w3.org/1999/xlink">
<g id="graph0" class="graph" transform="scale(1 1) rotate(0) translate(4 326.5)">
<title>MemoryLimitations</title>
<polygon fill="white" stroke="none" points="-4,4 -4,-326.5 252,-326.5 252,4 -4,4"/>
<g id="clust1" class="cluster">
<title>cluster_limitations</title>
<polygon fill="#ffebee" stroke="black" points="8,-8 8,-314.5 240,-314.5 240,-8 8,-8"/>
<text xml:space="preserve" text-anchor="middle" x="124" y="-297.2" font-family="Times New Roman,serif" font-size="14.00">Current Limitations</text>
</g>
<!-- limited_context -->
<g id="node1" class="node">
<title>limited_context</title>
<polygon fill="#ffcdd2" stroke="black" points="179.25,-282 68.75,-282 68.75,-242.5 179.25,-242.5 179.25,-282"/>
<text xml:space="preserve" text-anchor="middle" x="124" y="-264.7" font-family="Arial" font-size="14.00">Limited Context</text>
<text xml:space="preserve" text-anchor="middle" x="124" y="-248.95" font-family="Arial" font-size="14.00">Only 16 frames</text>
</g>
<!-- memory_loss -->
<g id="node2" class="node">
<title>memory_loss</title>
<polygon fill="#ffcdd2" stroke="black" points="232.12,-206.5 15.88,-206.5 15.88,-167 232.12,-167 232.12,-206.5"/>
<text xml:space="preserve" text-anchor="middle" x="124" y="-189.2" font-family="Arial" font-size="14.00">Short&#45;term Memory Loss</text>
<text xml:space="preserve" text-anchor="middle" x="124" y="-173.45" font-family="Arial" font-size="14.00">Forgets events &gt;1.6 seconds ago</text>
</g>
<!-- limited_context&#45;&gt;memory_loss -->
<g id="edge1" class="edge">
<title>limited_context&#45;&gt;memory_loss</title>
<path fill="none" stroke="black" d="M124,-242.32C124,-235.01 124,-226.45 124,-218.31"/>
<polygon fill="black" stroke="black" points="127.5,-218.38 124,-208.38 120.5,-218.38 127.5,-218.38"/>
</g>
<!-- inconsistency -->
<g id="node3" class="node">
<title>inconsistency</title>
<polygon fill="#ffcdd2" stroke="black" points="231.75,-131 16.25,-131 16.25,-91.5 231.75,-91.5 231.75,-131"/>
<text xml:space="preserve" text-anchor="middle" x="124" y="-113.7" font-family="Arial" font-size="14.00">Inconsistency Issues</text>
<text xml:space="preserve" text-anchor="middle" x="124" y="-97.95" font-family="Arial" font-size="14.00">Objects may change appearance</text>
</g>
<!-- memory_loss&#45;&gt;inconsistency -->
<g id="edge2" class="edge">
<title>memory_loss&#45;&gt;inconsistency</title>
<path fill="none" stroke="black" d="M124,-166.82C124,-159.51 124,-150.95 124,-142.81"/>
<polygon fill="black" stroke="black" points="127.5,-142.88 124,-132.88 120.5,-142.88 127.5,-142.88"/>
</g>
<!-- navigation -->
<g id="node4" class="node">
<title>navigation</title>
<polygon fill="#ffcdd2" stroke="black" points="231.38,-55.5 16.62,-55.5 16.62,-16 231.38,-16 231.38,-55.5"/>
<text xml:space="preserve" text-anchor="middle" x="124" y="-38.2" font-family="Arial" font-size="14.00">Navigation Problems</text>
<text xml:space="preserve" text-anchor="middle" x="124" y="-22.45" font-family="Arial" font-size="14.00">Can&#39;t remember distant locations</text>
</g>
<!-- inconsistency&#45;&gt;navigation -->
<g id="edge3" class="edge">
<title>inconsistency&#45;&gt;navigation</title>
<path fill="none" stroke="black" d="M124,-91.32C124,-84.01 124,-75.45 124,-67.31"/>
<polygon fill="black" stroke="black" points="127.5,-67.38 124,-57.38 120.5,-67.38 127.5,-67.38"/>
</g>
</g>
</svg>
