<?xml version="1.0" encoding="UTF-8" standalone="no"?>
<!DOCTYPE svg PUBLIC "-//W3C//DTD SVG 1.1//EN"
 "http://www.w3.org/Graphics/SVG/1.1/DTD/svg11.dtd">
<!-- Generated by graphviz version 13.1.0 (20250701.0955)
 -->
<!-- Title: MemoryCompensation Pages: 1 -->
<svg width="276pt" height="331pt"
 viewBox="0.00 0.00 276.00 331.00" xmlns="http://www.w3.org/2000/svg" xmlns:xlink="http://www.w3.org/1999/xlink">
<g id="graph0" class="graph" transform="scale(1 1) rotate(0) translate(4 326.5)">
<title>MemoryCompensation</title>
<polygon fill="white" stroke="none" points="-4,4 -4,-326.5 272,-326.5 272,4 -4,4"/>
<g id="clust1" class="cluster">
<title>cluster_compensation</title>
<polygon fill="#e8f5e9" stroke="black" points="8,-8 8,-314.5 260,-314.5 260,-8 8,-8"/>
<text xml:space="preserve" text-anchor="middle" x="134" y="-297.2" font-family="Times New Roman,serif" font-size="14.00">How Genie Compensates</text>
</g>
<!-- spatial_attention -->
<g id="node1" class="node">
<title>spatial_attention</title>
<polygon fill="#c8e6c9" stroke="black" points="223.38,-282 44.62,-282 44.62,-242.5 223.38,-242.5 223.38,-282"/>
<text xml:space="preserve" text-anchor="middle" x="134" y="-264.7" font-family="Arial" font-size="14.00">Spatial Attention</text>
<text xml:space="preserve" text-anchor="middle" x="134" y="-248.95" font-family="Arial" font-size="14.00">Focus on important objects</text>
</g>
<!-- temporal_consistency -->
<g id="node2" class="node">
<title>temporal_consistency</title>
<polygon fill="#c8e6c9" stroke="black" points="248.5,-206.5 19.5,-206.5 19.5,-167 248.5,-167 248.5,-206.5"/>
<text xml:space="preserve" text-anchor="middle" x="134" y="-189.2" font-family="Arial" font-size="14.00">Temporal Consistency</text>
<text xml:space="preserve" text-anchor="middle" x="134" y="-173.45" font-family="Arial" font-size="14.00">Smooth transitions between frames</text>
</g>
<!-- spatial_attention&#45;&gt;temporal_consistency -->
<g id="edge1" class="edge">
<title>spatial_attention&#45;&gt;temporal_consistency</title>
<path fill="none" stroke="black" d="M134,-242.32C134,-235.01 134,-226.45 134,-218.31"/>
<polygon fill="black" stroke="black" points="137.5,-218.38 134,-208.38 130.5,-218.38 137.5,-218.38"/>
</g>
<!-- action_conditioning -->
<g id="node3" class="node">
<title>action_conditioning</title>
<polygon fill="#c8e6c9" stroke="black" points="229.38,-131 38.62,-131 38.62,-91.5 229.38,-91.5 229.38,-131"/>
<text xml:space="preserve" text-anchor="middle" x="134" y="-113.7" font-family="Arial" font-size="14.00">Action Conditioning</text>
<text xml:space="preserve" text-anchor="middle" x="134" y="-97.95" font-family="Arial" font-size="14.00">Actions provide context clues</text>
</g>
<!-- temporal_consistency&#45;&gt;action_conditioning -->
<g id="edge2" class="edge">
<title>temporal_consistency&#45;&gt;action_conditioning</title>
<path fill="none" stroke="black" d="M134,-166.82C134,-159.51 134,-150.95 134,-142.81"/>
<polygon fill="black" stroke="black" points="137.5,-142.88 134,-132.88 130.5,-142.88 137.5,-142.88"/>
</g>
<!-- learned_patterns -->
<g id="node4" class="node">
<title>learned_patterns</title>
<polygon fill="#c8e6c9" stroke="black" points="252.25,-55.5 15.75,-55.5 15.75,-16 252.25,-16 252.25,-55.5"/>
<text xml:space="preserve" text-anchor="middle" x="134" y="-38.2" font-family="Arial" font-size="14.00">Learned Patterns</text>
<text xml:space="preserve" text-anchor="middle" x="134" y="-22.45" font-family="Arial" font-size="14.00">Understands common game physics</text>
</g>
<!-- action_conditioning&#45;&gt;learned_patterns -->
<g id="edge3" class="edge">
<title>action_conditioning&#45;&gt;learned_patterns</title>
<path fill="none" stroke="black" d="M134,-91.32C134,-84.01 134,-75.45 134,-67.31"/>
<polygon fill="black" stroke="black" points="137.5,-67.38 134,-57.38 130.5,-67.38 137.5,-67.38"/>
</g>
</g>
</svg>
