<?xml version="1.0" encoding="UTF-8" standalone="no"?>
<!DOCTYPE svg PUBLIC "-//W3C//DTD SVG 1.1//EN"
 "http://www.w3.org/Graphics/SVG/1.1/DTD/svg11.dtd">
<!-- Generated by graphviz version 13.1.0 (20250701.0955)
 -->
<!-- Title: SpatialMemory Pages: 1 -->
<svg width="498pt" height="104pt"
 viewBox="0.00 0.00 498.00 104.00" xmlns="http://www.w3.org/2000/svg" xmlns:xlink="http://www.w3.org/1999/xlink">
<g id="graph0" class="graph" transform="scale(1 1) rotate(0) translate(4 100)">
<title>SpatialMemory</title>
<polygon fill="white" stroke="none" points="-4,4 -4,-100 494.25,-100 494.25,4 -4,4"/>
<g id="clust1" class="cluster">
<title>cluster_spatial</title>
<polygon fill="#f9f9f9" stroke="black" points="8,-8 8,-88 482.25,-88 482.25,-8 8,-8"/>
<text xml:space="preserve" text-anchor="middle" x="245.12" y="-70.7" font-family="Times New Roman,serif" font-size="14.00">Single Frame Memory</text>
</g>
<!-- raw_frame -->
<g id="node1" class="node">
<title>raw_frame</title>
<polygon fill="#fff3e0" stroke="black" points="116,-55.75 16,-55.75 16,-16.25 116,-16.25 116,-55.75"/>
<text xml:space="preserve" text-anchor="middle" x="66" y="-38.45" font-family="Arial" font-size="14.00">Raw Frame</text>
<text xml:space="preserve" text-anchor="middle" x="66" y="-22.7" font-family="Arial" font-size="14.00">160×90 pixels</text>
</g>
<!-- spatial_tokens -->
<g id="node2" class="node">
<title>spatial_tokens</title>
<polygon fill="#e8f5e9" stroke="black" points="257.25,-55.75 152,-55.75 152,-16.25 257.25,-16.25 257.25,-55.75"/>
<text xml:space="preserve" text-anchor="middle" x="204.62" y="-38.45" font-family="Arial" font-size="14.00">Spatial Tokens</text>
<text xml:space="preserve" text-anchor="middle" x="204.62" y="-22.7" font-family="Arial" font-size="14.00">40×23 patches</text>
</g>
<!-- raw_frame&#45;&gt;spatial_tokens -->
<g id="edge1" class="edge">
<title>raw_frame&#45;&gt;spatial_tokens</title>
<path fill="none" stroke="black" d="M116.32,-36C124.12,-36 132.27,-36 140.33,-36"/>
<polygon fill="black" stroke="black" points="140.09,-39.5 150.09,-36 140.09,-32.5 140.09,-39.5"/>
</g>
<!-- object_locations -->
<g id="node3" class="node">
<title>object_locations</title>
<polygon fill="#c8e6c9" stroke="black" points="474.25,-55.75 293.25,-55.75 293.25,-16.25 474.25,-16.25 474.25,-55.75"/>
<text xml:space="preserve" text-anchor="middle" x="383.75" y="-38.45" font-family="Arial" font-size="14.00">Object Locations</text>
<text xml:space="preserve" text-anchor="middle" x="383.75" y="-22.7" font-family="Arial" font-size="14.00">Character, Platforms, Items</text>
</g>
<!-- spatial_tokens&#45;&gt;object_locations -->
<g id="edge2" class="edge">
<title>spatial_tokens&#45;&gt;object_locations</title>
<path fill="none" stroke="black" d="M257.33,-36C265.06,-36 273.23,-36 281.56,-36"/>
<polygon fill="black" stroke="black" points="281.47,-39.5 291.47,-36 281.47,-32.5 281.47,-39.5"/>
</g>
</g>
</svg>
