<?xml version="1.0" encoding="UTF-8" standalone="no"?>
<!DOCTYPE svg PUBLIC "-//W3C//DTD SVG 1.1//EN"
 "http://www.w3.org/Graphics/SVG/1.1/DTD/svg11.dtd">
<!-- Generated by graphviz version 13.1.0 (20250701.0955)
 -->
<!-- Title: STTransformer Pages: 1 -->
<svg width="513pt" height="406pt"
 viewBox="0.00 0.00 513.00 406.00" xmlns="http://www.w3.org/2000/svg" xmlns:xlink="http://www.w3.org/1999/xlink">
<g id="graph0" class="graph" transform="scale(1 1) rotate(0) translate(4 402)">
<title>STTransformer</title>
<polygon fill="white" stroke="none" points="-4,4 -4,-402 509,-402 509,4 -4,4"/>
<g id="clust1" class="cluster">
<title>cluster_st_block</title>
<polygon fill="#f9f9f9" stroke="black" points="8,-8 8,-390 152,-390 152,-8 8,-8"/>
<text xml:space="preserve" text-anchor="middle" x="80" y="-372.7" font-family="Times New Roman,serif" font-size="14.00">ST&#45;Transformer Block</text>
</g>
<g id="clust2" class="cluster">
<title>cluster_attention_patterns</title>
<polygon fill="#f5f5f5" stroke="black" points="160,-310 160,-390 497,-390 497,-310 160,-310"/>
<text xml:space="preserve" text-anchor="middle" x="328.5" y="-372.7" font-family="Times New Roman,serif" font-size="14.00">Attention Patterns</text>
</g>
<!-- input_tokens -->
<g id="node1" class="node">
<title>input_tokens</title>
<polygon fill="#f0f0f0" stroke="black" points="126.25,-357.5 33.75,-357.5 33.75,-318 126.25,-318 126.25,-357.5"/>
<text xml:space="preserve" text-anchor="middle" x="80" y="-340.2" font-family="Arial" font-size="14.00">Input Tokens</text>
<text xml:space="preserve" text-anchor="middle" x="80" y="-324.45" font-family="Arial" font-size="14.00">T×H×W</text>
</g>
<!-- spatial_attention -->
<g id="node2" class="node">
<title>spatial_attention</title>
<polygon fill="#e8f5e9" stroke="black" points="141.25,-282 18.75,-282 18.75,-242.5 141.25,-242.5 141.25,-282"/>
<text xml:space="preserve" text-anchor="middle" x="80" y="-264.7" font-family="Arial" font-size="14.00">Spatial Attention</text>
<text xml:space="preserve" text-anchor="middle" x="80" y="-248.95" font-family="Arial" font-size="14.00">within each frame</text>
</g>
<!-- input_tokens&#45;&gt;spatial_attention -->
<g id="edge1" class="edge">
<title>input_tokens&#45;&gt;spatial_attention</title>
<path fill="none" stroke="black" d="M80,-317.82C80,-310.51 80,-301.95 80,-293.81"/>
<polygon fill="black" stroke="black" points="83.5,-293.88 80,-283.88 76.5,-293.88 83.5,-293.88"/>
</g>
<!-- temporal_attention -->
<g id="node3" class="node">
<title>temporal_attention</title>
<polygon fill="#e1f5fe" stroke="black" points="144.25,-206.5 15.75,-206.5 15.75,-167 144.25,-167 144.25,-206.5"/>
<text xml:space="preserve" text-anchor="middle" x="80" y="-189.2" font-family="Arial" font-size="14.00">Temporal Attention</text>
<text xml:space="preserve" text-anchor="middle" x="80" y="-173.45" font-family="Arial" font-size="14.00">across time steps</text>
</g>
<!-- spatial_attention&#45;&gt;temporal_attention -->
<g id="edge2" class="edge">
<title>spatial_attention&#45;&gt;temporal_attention</title>
<path fill="none" stroke="black" d="M80,-242.32C80,-235.01 80,-226.45 80,-218.31"/>
<polygon fill="black" stroke="black" points="83.5,-218.38 80,-208.38 76.5,-218.38 83.5,-218.38"/>
</g>
<!-- feed_forward -->
<g id="node4" class="node">
<title>feed_forward</title>
<polygon fill="#fff3e0" stroke="black" points="130,-131 30,-131 30,-91.5 130,-91.5 130,-131"/>
<text xml:space="preserve" text-anchor="middle" x="80" y="-113.7" font-family="Arial" font-size="14.00">Feed Forward</text>
<text xml:space="preserve" text-anchor="middle" x="80" y="-97.95" font-family="Arial" font-size="14.00">Network</text>
</g>
<!-- temporal_attention&#45;&gt;feed_forward -->
<g id="edge3" class="edge">
<title>temporal_attention&#45;&gt;feed_forward</title>
<path fill="none" stroke="black" d="M80,-166.82C80,-159.51 80,-150.95 80,-142.81"/>
<polygon fill="black" stroke="black" points="83.5,-142.88 80,-132.88 76.5,-142.88 83.5,-142.88"/>
</g>
<!-- output_tokens -->
<g id="node5" class="node">
<title>output_tokens</title>
<polygon fill="#f0f0f0" stroke="black" points="131.88,-55.5 28.12,-55.5 28.12,-16 131.88,-16 131.88,-55.5"/>
<text xml:space="preserve" text-anchor="middle" x="80" y="-38.2" font-family="Arial" font-size="14.00">Output Tokens</text>
<text xml:space="preserve" text-anchor="middle" x="80" y="-22.45" font-family="Arial" font-size="14.00">T×H×W</text>
</g>
<!-- feed_forward&#45;&gt;output_tokens -->
<g id="edge4" class="edge">
<title>feed_forward&#45;&gt;output_tokens</title>
<path fill="none" stroke="black" d="M80,-91.32C80,-84.01 80,-75.45 80,-67.31"/>
<polygon fill="black" stroke="black" points="83.5,-67.38 80,-57.38 76.5,-67.38 83.5,-67.38"/>
</g>
<!-- spatial_pattern -->
<g id="node6" class="node">
<title>spatial_pattern</title>
<polygon fill="#e8f5e9" stroke="black" points="307.88,-357.5 168.12,-357.5 168.12,-318 307.88,-318 307.88,-357.5"/>
<text xml:space="preserve" text-anchor="middle" x="238" y="-340.2" font-family="Arial" font-size="14.00">Spatial: H×W tokens</text>
<text xml:space="preserve" text-anchor="middle" x="238" y="-324.45" font-family="Arial" font-size="14.00">per timestep</text>
</g>
<!-- temporal_pattern -->
<g id="node7" class="node">
<title>temporal_pattern</title>
<polygon fill="#e1f5fe" stroke="black" points="488.5,-357.5 325.5,-357.5 325.5,-318 488.5,-318 488.5,-357.5"/>
<text xml:space="preserve" text-anchor="middle" x="407" y="-340.2" font-family="Arial" font-size="14.00">Temporal: T×1×1 tokens</text>
<text xml:space="preserve" text-anchor="middle" x="407" y="-324.45" font-family="Arial" font-size="14.00">across time</text>
</g>
</g>
</svg>
