<?xml version="1.0" encoding="UTF-8" standalone="no"?>
<!DOCTYPE svg PUBLIC "-//W3C//DTD SVG 1.1//EN"
 "http://www.w3.org/Graphics/SVG/1.1/DTD/svg11.dtd">
<!-- Generated by graphviz version 13.1.0 (20250701.0955)
 -->
<!-- Title: TemporalMemory Pages: 1 -->
<svg width="234pt" height="468pt"
 viewBox="0.00 0.00 234.00 468.00" xmlns="http://www.w3.org/2000/svg" xmlns:xlink="http://www.w3.org/1999/xlink">
<g id="graph0" class="graph" transform="scale(1 1) rotate(0) translate(4 463.5)">
<title>TemporalMemory</title>
<polygon fill="white" stroke="none" points="-4,4 -4,-463.5 230,-463.5 230,4 -4,4"/>
<g id="clust1" class="cluster">
<title>cluster_temporal</title>
<polygon fill="#f9f9f9" stroke="black" points="8,-8 8,-451.5 218,-451.5 218,-8 8,-8"/>
<text xml:space="preserve" text-anchor="middle" x="113" y="-434.2" font-family="Times New Roman,serif" font-size="14.00">Temporal Memory Pattern</text>
</g>
<!-- t3 -->
<g id="node1" class="node">
<title>t3</title>
<polygon fill="#ffcdd2" stroke="black" points="204.12,-419 53.88,-419 53.88,-383 204.12,-383 204.12,-419"/>
<text xml:space="preserve" text-anchor="middle" x="129" y="-395.57" font-family="Arial" font-size="14.00">t&#45;3: Character jumping</text>
</g>
<!-- t2 -->
<g id="node2" class="node">
<title>t2</title>
<polygon fill="#f8bbd9" stroke="black" points="189.75,-347 58.25,-347 58.25,-311 189.75,-311 189.75,-347"/>
<text xml:space="preserve" text-anchor="middle" x="124" y="-323.57" font-family="Arial" font-size="14.00">t&#45;2: Character in air</text>
</g>
<!-- t3&#45;&gt;t2 -->
<g id="edge1" class="edge">
<title>t3&#45;&gt;t2</title>
<path fill="none" stroke="black" d="M127.76,-382.7C127.24,-375.41 126.62,-366.73 126.04,-358.54"/>
<polygon fill="black" stroke="black" points="129.53,-358.34 125.33,-348.61 122.55,-358.84 129.53,-358.34"/>
</g>
<!-- motion_vector -->
<g id="node5" class="node">
<title>motion_vector</title>
<polygon fill="#f0f0f0" stroke="black" points="210.25,-131 27.75,-131 27.75,-91.5 210.25,-91.5 210.25,-131"/>
<text xml:space="preserve" text-anchor="middle" x="119" y="-113.7" font-family="Arial" font-size="14.00">Motion Vector</text>
<text xml:space="preserve" text-anchor="middle" x="119" y="-97.95" font-family="Arial" font-size="14.00">Jump → Air → Fall → Land</text>
</g>
<!-- t3&#45;&gt;motion_vector -->
<g id="edge4" class="edge">
<title>t3&#45;&gt;motion_vector</title>
<path fill="none" stroke="black" stroke-dasharray="5,2" d="M164.05,-382.6C177.56,-373.91 191.54,-362.01 199,-347 206.12,-332.67 200.27,-326.95 199,-311 193.87,-246.39 206.04,-224.43 176,-167 170.56,-156.6 162.4,-147.05 153.94,-138.92"/>
<polygon fill="black" stroke="black" points="156.37,-136.4 146.59,-132.32 151.68,-141.61 156.37,-136.4"/>
</g>
<!-- t1 -->
<g id="node3" class="node">
<title>t1</title>
<polygon fill="#e1bee7" stroke="black" points="169.75,-275 32.25,-275 32.25,-239 169.75,-239 169.75,-275"/>
<text xml:space="preserve" text-anchor="middle" x="101" y="-251.57" font-family="Arial" font-size="14.00">t&#45;1: Character falling</text>
</g>
<!-- t2&#45;&gt;t1 -->
<g id="edge2" class="edge">
<title>t2&#45;&gt;t1</title>
<path fill="none" stroke="black" d="M118.31,-310.7C115.86,-303.24 112.93,-294.32 110.19,-285.97"/>
<polygon fill="black" stroke="black" points="113.54,-284.95 107.09,-276.54 106.89,-287.14 113.54,-284.95"/>
</g>
<!-- t2&#45;&gt;motion_vector -->
<g id="edge5" class="edge">
<title>t2&#45;&gt;motion_vector</title>
<path fill="none" stroke="black" stroke-dasharray="5,2" d="M149.67,-310.72C160.92,-301.58 172.93,-289.28 179,-275 185.26,-260.28 180.43,-254.94 179,-239 176.1,-206.61 179.97,-196.36 166,-167 161.38,-157.28 154.56,-147.92 147.55,-139.77"/>
<polygon fill="black" stroke="black" points="150.3,-137.59 140.97,-132.56 145.13,-142.3 150.3,-137.59"/>
</g>
<!-- t -->
<g id="node4" class="node">
<title>t</title>
<polygon fill="#c5cae9" stroke="black" points="149.88,-203 16.12,-203 16.12,-167 149.88,-167 149.88,-203"/>
<text xml:space="preserve" text-anchor="middle" x="83" y="-179.57" font-family="Arial" font-size="14.00">t: Character landing</text>
</g>
<!-- t1&#45;&gt;t -->
<g id="edge3" class="edge">
<title>t1&#45;&gt;t</title>
<path fill="none" stroke="black" d="M96.55,-238.7C94.65,-231.32 92.39,-222.52 90.26,-214.25"/>
<polygon fill="black" stroke="black" points="93.66,-213.38 87.78,-204.57 86.88,-215.13 93.66,-213.38"/>
</g>
<!-- t1&#45;&gt;motion_vector -->
<g id="edge6" class="edge">
<title>t1&#45;&gt;motion_vector</title>
<path fill="none" stroke="black" stroke-dasharray="5,2" d="M128.64,-238.54C140.33,-229.51 152.67,-217.35 159,-203 165.45,-188.36 163.96,-182.21 159,-167 155.9,-157.51 150.47,-148.3 144.58,-140.22"/>
<polygon fill="black" stroke="black" points="147.45,-138.2 138.52,-132.5 141.94,-142.53 147.45,-138.2"/>
</g>
<!-- t&#45;&gt;motion_vector -->
<g id="edge7" class="edge">
<title>t&#45;&gt;motion_vector</title>
<path fill="none" stroke="black" stroke-dasharray="5,2" d="M91.71,-166.63C95.5,-159.08 100.04,-150.03 104.33,-141.49"/>
<polygon fill="black" stroke="black" points="107.32,-143.34 108.67,-132.83 101.06,-140.2 107.32,-143.34"/>
</g>
<!-- predicted_state -->
<g id="node6" class="node">
<title>predicted_state</title>
<polygon fill="#c8e6c9" stroke="black" points="188.88,-55.5 49.12,-55.5 49.12,-16 188.88,-16 188.88,-55.5"/>
<text xml:space="preserve" text-anchor="middle" x="119" y="-38.2" font-family="Arial" font-size="14.00">Predicted Next State</text>
<text xml:space="preserve" text-anchor="middle" x="119" y="-22.45" font-family="Arial" font-size="14.00">Character walking</text>
</g>
<!-- motion_vector&#45;&gt;predicted_state -->
<g id="edge8" class="edge">
<title>motion_vector&#45;&gt;predicted_state</title>
<path fill="none" stroke="black" d="M119,-91.32C119,-84.01 119,-75.45 119,-67.31"/>
<polygon fill="black" stroke="black" points="122.5,-67.38 119,-57.38 115.5,-67.38 122.5,-67.38"/>
</g>
</g>
</svg>
