<?xml version="1.0" encoding="UTF-8" standalone="no"?>
<!DOCTYPE svg PUBLIC "-//W3C//DTD SVG 1.1//EN"
 "http://www.w3.org/Graphics/SVG/1.1/DTD/svg11.dtd">
<!-- Generated by graphviz version 13.1.0 (20250701.0955)
 -->
<!-- Title: TokenRepresentation Pages: 1 -->
<svg width="527pt" height="48pt"
 viewBox="0.00 0.00 527.00 48.00" xmlns="http://www.w3.org/2000/svg" xmlns:xlink="http://www.w3.org/1999/xlink">
<g id="graph0" class="graph" transform="scale(1 1) rotate(0) translate(4 43.5)">
<title>TokenRepresentation</title>
<polygon fill="white" stroke="none" points="-4,4 -4,-43.5 523,-43.5 523,4 -4,4"/>
<!-- raw_frame -->
<g id="node1" class="node">
<title>raw_frame</title>
<polygon fill="#ffcdd2" stroke="black" points="177.25,-39.5 0,-39.5 0,0 177.25,0 177.25,-39.5"/>
<text xml:space="preserve" text-anchor="middle" x="88.62" y="-22.2" font-family="Arial" font-size="14.00">Raw Frame</text>
<text xml:space="preserve" text-anchor="middle" x="88.62" y="-6.45" font-family="Arial" font-size="14.00">160×90×3 = 43,200 values</text>
</g>
<!-- compressed_tokens -->
<g id="node2" class="node">
<title>compressed_tokens</title>
<polygon fill="#fff3e0" stroke="black" points="365,-39.5 213.25,-39.5 213.25,0 365,0 365,-39.5"/>
<text xml:space="preserve" text-anchor="middle" x="289.12" y="-22.2" font-family="Arial" font-size="14.00">Compressed Tokens</text>
<text xml:space="preserve" text-anchor="middle" x="289.12" y="-6.45" font-family="Arial" font-size="14.00">40×23×1 = 920 tokens</text>
</g>
<!-- raw_frame&#45;&gt;compressed_tokens -->
<g id="edge1" class="edge">
<title>raw_frame&#45;&gt;compressed_tokens</title>
<path fill="none" stroke="black" d="M177.56,-19.75C185.59,-19.75 193.73,-19.75 201.75,-19.75"/>
<polygon fill="black" stroke="black" points="201.48,-23.25 211.48,-19.75 201.48,-16.25 201.48,-23.25"/>
</g>
<!-- memory_savings -->
<g id="node3" class="node">
<title>memory_savings</title>
<polygon fill="#c8e6c9" stroke="black" points="519,-39.5 401,-39.5 401,0 519,0 519,-39.5"/>
<text xml:space="preserve" text-anchor="middle" x="460" y="-22.2" font-family="Arial" font-size="14.00">Memory Savings</text>
<text xml:space="preserve" text-anchor="middle" x="460" y="-6.45" font-family="Arial" font-size="14.00">47× reduction</text>
</g>
<!-- compressed_tokens&#45;&gt;memory_savings -->
<g id="edge2" class="edge">
<title>compressed_tokens&#45;&gt;memory_savings</title>
<path fill="none" stroke="black" d="M365.18,-19.75C373.17,-19.75 381.27,-19.75 389.2,-19.75"/>
<polygon fill="black" stroke="black" points="389.14,-23.25 399.14,-19.75 389.14,-16.25 389.14,-23.25"/>
</g>
</g>
</svg>
