<?xml version="1.0" encoding="UTF-8" standalone="no"?>
<!DOCTYPE svg PUBLIC "-//W3C//DTD SVG 1.1//EN"
 "http://www.w3.org/Graphics/SVG/1.1/DTD/svg11.dtd">
<!-- Generated by graphviz version 13.1.0 (20250701.0955)
 -->
<!-- Title: TrainingPipeline Pages: 1 -->
<svg width="459pt" height="295pt"
 viewBox="0.00 0.00 459.00 295.00" xmlns="http://www.w3.org/2000/svg" xmlns:xlink="http://www.w3.org/1999/xlink">
<g id="graph0" class="graph" transform="scale(1 1) rotate(0) translate(4 290.5)">
<title>TrainingPipeline</title>
<polygon fill="white" stroke="none" points="-4,4 -4,-290.5 455,-290.5 455,4 -4,4"/>
<g id="clust1" class="cluster">
<title>cluster_phase1</title>
<polygon fill="#e8f5e9" stroke="black" points="8,-8 8,-161.75 136,-161.75 136,-8 8,-8"/>
<text xml:space="preserve" text-anchor="middle" x="72" y="-144.45" font-family="Times New Roman,serif" font-size="14.00">Phase 1</text>
</g>
<g id="clust2" class="cluster">
<title>cluster_phase2</title>
<polygon fill="#fff3e0" stroke="black" points="144,-83.5 144,-163.5 443,-163.5 443,-83.5 144,-83.5"/>
<text xml:space="preserve" text-anchor="middle" x="293.5" y="-146.2" font-family="Times New Roman,serif" font-size="14.00">Phase 2: Joint Training</text>
</g>
<!-- internet_videos -->
<g id="node1" class="node">
<title>internet_videos</title>
<polygon fill="#f0f0f0" stroke="black" points="264.38,-286.5 157.62,-286.5 157.62,-247 264.38,-247 264.38,-286.5"/>
<text xml:space="preserve" text-anchor="middle" x="211" y="-269.2" font-family="Arial" font-size="14.00">Internet Videos</text>
<text xml:space="preserve" text-anchor="middle" x="211" y="-253.45" font-family="Arial" font-size="14.00">30k hours</text>
</g>
<!-- quality_filtering -->
<g id="node2" class="node">
<title>quality_filtering</title>
<polygon fill="#f0f0f0" stroke="black" points="266.25,-211 155.75,-211 155.75,-171.5 266.25,-171.5 266.25,-211"/>
<text xml:space="preserve" text-anchor="middle" x="211" y="-193.7" font-family="Arial" font-size="14.00">Quality Filtering</text>
<text xml:space="preserve" text-anchor="middle" x="211" y="-177.95" font-family="Arial" font-size="14.00">6.8M videos</text>
</g>
<!-- internet_videos&#45;&gt;quality_filtering -->
<g id="edge1" class="edge">
<title>internet_videos&#45;&gt;quality_filtering</title>
<path fill="none" stroke="black" d="M211,-246.82C211,-239.51 211,-230.95 211,-222.81"/>
<polygon fill="black" stroke="black" points="214.5,-222.88 211,-212.88 207.5,-222.88 214.5,-222.88"/>
</g>
<!-- tokenizer_training -->
<g id="node3" class="node">
<title>tokenizer_training</title>
<polygon fill="#e8f5e9" stroke="black" points="128,-129.25 16,-129.25 16,-93.25 128,-93.25 128,-129.25"/>
<text xml:space="preserve" text-anchor="middle" x="72" y="-105.83" font-family="Arial" font-size="14.00">Video Tokenizer</text>
</g>
<!-- quality_filtering&#45;&gt;tokenizer_training -->
<g id="edge2" class="edge">
<title>quality_filtering&#45;&gt;tokenizer_training</title>
<path fill="none" stroke="black" d="M155.27,-171.02C150.01,-168.68 144.85,-166.17 140,-163.5 126.31,-155.96 112.32,-145.91 100.63,-136.7"/>
<polygon fill="black" stroke="black" points="102.94,-134.08 92.96,-130.52 98.55,-139.52 102.94,-134.08"/>
</g>
<!-- lam_loss -->
<g id="node5" class="node">
<title>lam_loss</title>
<polygon fill="#ffcc02" stroke="black" points="269.62,-131 152.38,-131 152.38,-91.5 269.62,-91.5 269.62,-131"/>
<text xml:space="preserve" text-anchor="middle" x="211" y="-113.7" font-family="Arial" font-size="14.00">LAM Loss</text>
<text xml:space="preserve" text-anchor="middle" x="211" y="-97.95" font-family="Arial" font-size="14.00">Action Prediction</text>
</g>
<!-- quality_filtering&#45;&gt;lam_loss -->
<g id="edge3" class="edge">
<title>quality_filtering&#45;&gt;lam_loss</title>
<path fill="none" stroke="black" d="M211,-171.37C211,-162.78 211,-152.39 211,-142.74"/>
<polygon fill="black" stroke="black" points="214.5,-143.01 211,-133.01 207.5,-143.01 214.5,-143.01"/>
</g>
<!-- dynamics_loss -->
<g id="node6" class="node">
<title>dynamics_loss</title>
<polygon fill="#ffcc02" stroke="black" points="434.62,-131 287.38,-131 287.38,-91.5 434.62,-91.5 434.62,-131"/>
<text xml:space="preserve" text-anchor="middle" x="361" y="-113.7" font-family="Arial" font-size="14.00">Dynamics Loss</text>
<text xml:space="preserve" text-anchor="middle" x="361" y="-97.95" font-family="Arial" font-size="14.00">Next Token Prediction</text>
</g>
<!-- quality_filtering&#45;&gt;dynamics_loss -->
<g id="edge4" class="edge">
<title>quality_filtering&#45;&gt;dynamics_loss</title>
<path fill="none" stroke="black" d="M262.68,-171.08C268.25,-168.67 273.79,-166.13 279,-163.5 294.08,-155.9 309.97,-146.36 323.7,-137.58"/>
<polygon fill="black" stroke="black" points="325.53,-140.57 332.01,-132.18 321.72,-134.7 325.53,-140.57"/>
</g>
<!-- vqvae_loss -->
<g id="node4" class="node">
<title>vqvae_loss</title>
<polygon fill="#c8e6c9" stroke="black" points="125,-55.5 19,-55.5 19,-16 125,-16 125,-55.5"/>
<text xml:space="preserve" text-anchor="middle" x="72" y="-38.2" font-family="Arial" font-size="14.00">VQ&#45;VAE Loss</text>
<text xml:space="preserve" text-anchor="middle" x="72" y="-22.45" font-family="Arial" font-size="14.00">Reconstruction</text>
</g>
<!-- tokenizer_training&#45;&gt;vqvae_loss -->
<g id="edge5" class="edge">
<title>tokenizer_training&#45;&gt;vqvae_loss</title>
<path fill="none" stroke="black" d="M72,-92.83C72,-85.19 72,-75.98 72,-67.25"/>
<polygon fill="black" stroke="black" points="75.5,-67.36 72,-57.36 68.5,-67.36 75.5,-67.36"/>
</g>
</g>
</svg>
