<?xml version="1.0" encoding="UTF-8" standalone="no"?>
<!DOCTYPE svg PUBLIC "-//W3C//DTD SVG 1.1//EN"
 "http://www.w3.org/Graphics/SVG/1.1/DTD/svg11.dtd">
<!-- Generated by graphviz version 13.1.0 (20250701.0955)
 -->
<!-- Title: VideoTokenizer Pages: 1 -->
<svg width="870pt" height="104pt"
 viewBox="0.00 0.00 870.00 104.00" xmlns="http://www.w3.org/2000/svg" xmlns:xlink="http://www.w3.org/1999/xlink">
<g id="graph0" class="graph" transform="scale(1 1) rotate(0) translate(4 100)">
<title>VideoTokenizer</title>
<polygon fill="white" stroke="none" points="-4,4 -4,-100 866.25,-100 866.25,4 -4,4"/>
<g id="clust1" class="cluster">
<title>cluster_tokenizer</title>
<polygon fill="#f9f9f9" stroke="black" points="8,-8 8,-88 854.25,-88 854.25,-8 8,-8"/>
<text xml:space="preserve" text-anchor="middle" x="431.12" y="-70.7" font-family="Times New Roman,serif" font-size="14.00">Video Tokenizer Architecture</text>
</g>
<!-- raw_video -->
<g id="node1" class="node">
<title>raw_video</title>
<polygon fill="#fff3e0" stroke="black" points="98,-55.75 16,-55.75 16,-16.25 98,-16.25 98,-55.75"/>
<text xml:space="preserve" text-anchor="middle" x="57" y="-38.45" font-family="Arial" font-size="14.00">Raw Video</text>
<text xml:space="preserve" text-anchor="middle" x="57" y="-22.7" font-family="Arial" font-size="14.00">T×H×W×C</text>
</g>
<!-- encoder -->
<g id="node2" class="node">
<title>encoder</title>
<polygon fill="#e8f5e9" stroke="black" points="245.25,-55.75 134,-55.75 134,-16.25 245.25,-16.25 245.25,-55.75"/>
<text xml:space="preserve" text-anchor="middle" x="189.62" y="-38.45" font-family="Arial" font-size="14.00">ST&#45;Transformer</text>
<text xml:space="preserve" text-anchor="middle" x="189.62" y="-22.7" font-family="Arial" font-size="14.00">Encoder</text>
</g>
<!-- raw_video&#45;&gt;encoder -->
<g id="edge1" class="edge">
<title>raw_video&#45;&gt;encoder</title>
<path fill="none" stroke="black" d="M98.26,-36C105.99,-36 114.27,-36 122.57,-36"/>
<polygon fill="black" stroke="black" points="122.33,-39.5 132.33,-36 122.33,-32.5 122.33,-39.5"/>
</g>
<!-- quantization -->
<g id="node3" class="node">
<title>quantization</title>
<polygon fill="#fff3e0" stroke="black" points="373.75,-55.75 281.25,-55.75 281.25,-16.25 373.75,-16.25 373.75,-55.75"/>
<text xml:space="preserve" text-anchor="middle" x="327.5" y="-38.45" font-family="Arial" font-size="14.00">VQ&#45;VAE</text>
<text xml:space="preserve" text-anchor="middle" x="327.5" y="-22.7" font-family="Arial" font-size="14.00">Quantization</text>
</g>
<!-- encoder&#45;&gt;quantization -->
<g id="edge2" class="edge">
<title>encoder&#45;&gt;quantization</title>
<path fill="none" stroke="black" d="M245.5,-36C253.42,-36 261.58,-36 269.54,-36"/>
<polygon fill="black" stroke="black" points="269.48,-39.5 279.48,-36 269.48,-32.5 269.48,-39.5"/>
</g>
<!-- tokens -->
<g id="node4" class="node">
<title>tokens</title>
<polygon fill="#f0f0f0" stroke="black" points="521.75,-55.75 409.75,-55.75 409.75,-16.25 521.75,-16.25 521.75,-55.75"/>
<text xml:space="preserve" text-anchor="middle" x="465.75" y="-38.45" font-family="Arial" font-size="14.00">Discrete Tokens</text>
<text xml:space="preserve" text-anchor="middle" x="465.75" y="-22.7" font-family="Arial" font-size="14.00">T×D</text>
</g>
<!-- quantization&#45;&gt;tokens -->
<g id="edge3" class="edge">
<title>quantization&#45;&gt;tokens</title>
<path fill="none" stroke="black" d="M374.25,-36C381.92,-36 390.02,-36 398.09,-36"/>
<polygon fill="black" stroke="black" points="397.92,-39.5 407.92,-36 397.92,-32.5 397.92,-39.5"/>
</g>
<!-- decoder -->
<g id="node5" class="node">
<title>decoder</title>
<polygon fill="#e8f5e9" stroke="black" points="669,-55.75 557.75,-55.75 557.75,-16.25 669,-16.25 669,-55.75"/>
<text xml:space="preserve" text-anchor="middle" x="613.38" y="-38.45" font-family="Arial" font-size="14.00">ST&#45;Transformer</text>
<text xml:space="preserve" text-anchor="middle" x="613.38" y="-22.7" font-family="Arial" font-size="14.00">Decoder</text>
</g>
<!-- tokens&#45;&gt;decoder -->
<g id="edge4" class="edge">
<title>tokens&#45;&gt;decoder</title>
<path fill="none" stroke="black" d="M522.22,-36C530.09,-36 538.24,-36 546.28,-36"/>
<polygon fill="black" stroke="black" points="546.03,-39.5 556.03,-36 546.03,-32.5 546.03,-39.5"/>
</g>
<!-- reconstructed -->
<g id="node6" class="node">
<title>reconstructed</title>
<polygon fill="#f0f0f0" stroke="black" points="846.25,-55.75 705,-55.75 705,-16.25 846.25,-16.25 846.25,-55.75"/>
<text xml:space="preserve" text-anchor="middle" x="775.62" y="-38.45" font-family="Arial" font-size="14.00">Reconstructed Video</text>
<text xml:space="preserve" text-anchor="middle" x="775.62" y="-22.7" font-family="Arial" font-size="14.00">T×H×W×C</text>
</g>
<!-- decoder&#45;&gt;reconstructed -->
<g id="edge5" class="edge">
<title>decoder&#45;&gt;reconstructed</title>
<path fill="none" stroke="black" d="M669.08,-36C676.84,-36 684.96,-36 693.1,-36"/>
<polygon fill="black" stroke="black" points="693.07,-39.5 703.07,-36 693.07,-32.5 693.07,-39.5"/>
</g>
</g>
</svg>
