<svg xmlns="http://www.w3.org/2000/svg" width="1069.0" height="38.0" viewBox="0.0 0.0 1069.0 38.0" fill="none">
<rect width="1069" height="38" fill="white" />
<path d="M70.5579 24.1354L67.9679 14.1114H69.2699L70.9919 21.4474L71.1459 22.1614H71.2019L71.3979 21.4474L73.5119 14.1114H74.7299L76.7459 21.4474L76.9419 22.1614H76.9979L77.1519 21.4474L78.8739 14.1114H80.1619L77.5859 24.1354H76.3679L74.3659 16.8974L74.1419 16.0574H74.0859L73.8619 16.8974L71.7759 24.1354H70.5579ZM87.6525 26.3194C87.3631 25.9834 87.0691 25.5867 86.7705 25.1294C86.4811 24.6814 86.2105 24.1774 85.9585 23.6174C85.7158 23.048 85.5198 22.432 85.3705 21.7694C85.2305 21.1067 85.1605 20.3927 85.1605 19.6274C85.1605 18.862 85.2305 18.148 85.3705 17.4854C85.5198 16.8227 85.7158 16.2114 85.9585 15.6514C86.2105 15.082 86.4811 14.5734 86.7705 14.1254C87.0691 13.668 87.3631 13.2714 87.6525 12.9354L88.5205 13.5514C88.1098 14.0367 87.7365 14.5967 87.4005 15.2314C87.0738 15.8567 86.8125 16.538 86.6165 17.2754C86.4298 18.0127 86.3365 18.7967 86.3365 19.6274C86.3365 20.458 86.4298 21.242 86.6165 21.9794C86.8125 22.7167 87.0738 23.398 87.4005 24.0234C87.7365 24.6487 88.1098 25.2087 88.5205 25.7034L87.6525 26.3194ZM89.245 17.8494V16.7714H90.505V15.2454C90.505 14.788 90.5983 14.396 90.785 14.0694C90.981 13.7427 91.247 13.4907 91.583 13.3134C91.919 13.136 92.2923 13.0474 92.703 13.0474C92.9456 13.0474 93.1416 13.0614 93.291 13.0894C93.4496 13.1174 93.5896 13.1547 93.711 13.2014V14.3494C93.5896 14.3027 93.4543 14.256 93.305 14.2094C93.165 14.1627 92.9876 14.1394 92.773 14.1394C92.465 14.1394 92.2036 14.2374 91.989 14.4334C91.7836 14.6294 91.681 14.9327 91.681 15.3434V16.7714H93.417V17.8494H91.681V24.1354H90.505V17.8494H89.245ZM97.7261 24.3594C97.0075 24.3594 96.3821 24.196 95.8501 23.8694C95.3275 23.5334 94.9215 23.0714 94.6321 22.4834C94.3428 21.8954 94.1981 21.2187 94.1981 20.4534C94.1981 19.6787 94.3428 19.002 94.6321 18.4234C94.9215 17.8354 95.3275 17.378 95.8501 17.0514C96.3821 16.7154 97.0075 16.5474 97.7261 16.5474C98.4448 16.5474 99.0655 16.7154 99.5881 17.0514C100.111 17.378 100.512 17.8354 100.792 18.4234C101.081 19.002 101.226 19.6787 101.226 20.4534C101.226 21.2187 101.081 21.8954 100.792 22.4834C100.512 23.0714 100.111 23.5334 99.5881 23.8694C99.0655 24.196 98.4448 24.3594 97.7261 24.3594ZM97.7261 23.2814C98.1835 23.2814 98.5848 23.1694 98.9301 22.9454C99.2848 22.7214 99.5601 22.3994 99.7561 21.9794C99.9521 21.5594 100.05 21.0507 100.05 20.4534C100.05 19.856 99.9521 19.3474 99.7561 18.9274C99.5601 18.5074 99.2848 18.1854 98.9301 17.9614C98.5848 17.7374 98.1835 17.6254 97.7261 17.6254C97.2688 17.6254 96.8628 17.7374 96.5081 17.9614C96.1535 18.1854 95.8735 18.5074 95.6681 18.9274C95.4721 19.3474 95.3741 19.856 95.3741 20.4534C95.3741 21.0507 95.4721 21.5594 95.6681 21.9794C95.8735 22.3994 96.1535 22.7214 96.5081 22.9454C96.8628 23.1694 97.2688 23.2814 97.7261 23.2814ZM102.699 24.1354V16.7714H103.819V17.7934H103.875C103.968 17.5507 104.113 17.336 104.309 17.1494C104.505 16.9627 104.729 16.818 104.981 16.7154C105.242 16.6127 105.508 16.5614 105.779 16.5614C105.956 16.5614 106.101 16.5707 106.213 16.5894C106.325 16.608 106.423 16.636 106.507 16.6734V17.9194C106.376 17.854 106.236 17.8074 106.087 17.7794C105.937 17.7514 105.783 17.7374 105.625 17.7374C105.298 17.7374 104.999 17.8307 104.729 18.0174C104.467 18.204 104.257 18.456 104.099 18.7734C103.949 19.0814 103.875 19.422 103.875 19.7954V24.1354H102.699ZM109.428 24.1354L107.314 16.7714H108.504L110.03 22.5394H110.044L111.71 16.7714H112.914L114.58 22.5254H114.594L116.12 16.7714H117.282L115.168 24.1354H113.992L112.284 18.1994L110.576 24.1354H109.428ZM120.593 24.3594C120.089 24.3594 119.645 24.266 119.263 24.0794C118.88 23.8927 118.581 23.6314 118.367 23.2954C118.152 22.95 118.045 22.544 118.045 22.0774C118.045 21.5827 118.171 21.172 118.423 20.8454C118.684 20.5094 119.025 20.2574 119.445 20.0894C119.874 19.9214 120.336 19.8374 120.831 19.8374C121.12 19.8374 121.386 19.8514 121.629 19.8794C121.881 19.898 122.119 19.9307 122.343 19.9774C122.576 20.024 122.8 20.0847 123.015 20.1594V19.3474C123.015 18.8154 122.837 18.3954 122.483 18.0874C122.128 17.77 121.675 17.6114 121.125 17.6114C120.639 17.6114 120.238 17.7234 119.921 17.9474C119.603 18.162 119.384 18.484 119.263 18.9134L118.199 18.6474C118.283 18.2087 118.46 17.8354 118.731 17.5274C119.001 17.21 119.342 16.9674 119.753 16.7994C120.173 16.6314 120.63 16.5474 121.125 16.5474C122.086 16.5474 122.828 16.79 123.351 17.2754C123.883 17.7607 124.149 18.442 124.149 19.3194V24.1354H123.015V23.1694H122.959C122.828 23.356 122.655 23.5427 122.441 23.7294C122.226 23.916 121.965 24.0654 121.657 24.1774C121.358 24.2987 121.003 24.3594 120.593 24.3594ZM120.803 23.3234C121.232 23.3234 121.61 23.23 121.937 23.0434C122.273 22.8567 122.534 22.6 122.721 22.2734C122.917 21.9374 123.015 21.564 123.015 21.1534C122.669 21.0227 122.338 20.9294 122.021 20.8734C121.703 20.8174 121.377 20.7894 121.041 20.7894C120.509 20.7894 120.075 20.892 119.739 21.0974C119.412 21.2934 119.249 21.62 119.249 22.0774C119.249 22.4507 119.393 22.754 119.683 22.9874C119.981 23.2114 120.355 23.3234 120.803 23.3234ZM126.105 24.1354V16.7714H127.225V17.7934H127.281C127.374 17.5507 127.519 17.336 127.715 17.1494C127.911 16.9627 128.135 16.818 128.387 16.7154C128.648 16.6127 128.914 16.5614 129.185 16.5614C129.362 16.5614 129.507 16.5707 129.619 16.5894C129.731 16.608 129.829 16.636 129.913 16.6734V17.9194C129.782 17.854 129.642 17.8074 129.493 17.7794C129.343 17.7514 129.189 17.7374 129.031 17.7374C128.704 17.7374 128.405 17.8307 128.135 18.0174C127.873 18.204 127.663 18.456 127.505 18.7734C127.355 19.0814 127.281 19.422 127.281 19.7954V24.1354H126.105ZM133.842 24.3594C133.179 24.3594 132.6 24.196 132.106 23.8694C131.611 23.5334 131.228 23.0714 130.958 22.4834C130.687 21.8954 130.552 21.2187 130.552 20.4534C130.552 19.6787 130.687 19.002 130.958 18.4234C131.228 17.8354 131.606 17.378 132.092 17.0514C132.586 16.7154 133.165 16.5474 133.828 16.5474C134.201 16.5474 134.542 16.608 134.85 16.7294C135.158 16.8414 135.424 16.9907 135.648 17.1774C135.872 17.364 136.044 17.5647 136.166 17.7794H136.222L136.166 16.7714V13.2714H137.342V24.1354H136.222V23.0994H136.166C136.044 23.314 135.872 23.5194 135.648 23.7154C135.424 23.9114 135.158 24.0654 134.85 24.1774C134.551 24.2987 134.215 24.3594 133.842 24.3594ZM133.968 23.2814C134.416 23.2814 134.808 23.174 135.144 22.9594C135.48 22.7447 135.741 22.4274 135.928 22.0074C136.124 21.578 136.222 21.06 136.222 20.4534C136.222 19.8374 136.124 19.3194 135.928 18.8994C135.741 18.4794 135.48 18.162 135.144 17.9474C134.808 17.7327 134.416 17.6254 133.968 17.6254C133.529 17.6254 133.137 17.7327 132.792 17.9474C132.456 18.162 132.194 18.4794 132.008 18.8994C131.821 19.3194 131.728 19.8374 131.728 20.4534C131.728 21.06 131.821 21.578 132.008 22.0074C132.194 22.4274 132.456 22.7447 132.792 22.9594C133.137 23.174 133.529 23.2814 133.968 23.2814ZM139.674 26.3194L138.806 25.7034C139.217 25.2087 139.586 24.6487 139.912 24.0234C140.248 23.398 140.51 22.7167 140.696 21.9794C140.892 21.242 140.99 20.458 140.99 19.6274C140.99 18.7967 140.892 18.0127 140.696 17.2754C140.51 16.538 140.248 15.8567 139.912 15.2314C139.586 14.5967 139.217 14.0367 138.806 13.5514L139.674 12.9354C140.066 13.3834 140.454 13.9387 140.836 14.6014C141.219 15.2547 141.536 16.0014 141.788 16.8414C142.04 17.6814 142.166 18.61 142.166 19.6274C142.166 20.3927 142.092 21.1067 141.942 21.7694C141.802 22.432 141.606 23.048 141.354 23.6174C141.112 24.1774 140.846 24.6814 140.556 25.1294C140.267 25.5867 139.973 25.9834 139.674 26.3194Z" fill="#5F6368" />
<path d="M279.911 24.1354L283.537 14.1114H284.867L288.507 24.1354H287.219L286.253 21.3774H282.151L281.185 24.1354H279.911ZM285.861 20.2574L284.601 16.6314L284.237 15.5534H284.181L283.803 16.6314L282.543 20.2574H285.861ZM296 26.3194C295.711 25.9834 295.417 25.5867 295.118 25.1294C294.829 24.6814 294.558 24.1774 294.306 23.6174C294.063 23.048 293.867 22.432 293.718 21.7694C293.578 21.1067 293.508 20.3927 293.508 19.6274C293.508 18.862 293.578 18.148 293.718 17.4854C293.867 16.8227 294.063 16.2114 294.306 15.6514C294.558 15.082 294.829 14.5734 295.118 14.1254C295.417 13.668 295.711 13.2714 296 12.9354L296.868 13.5514C296.457 14.0367 296.084 14.5967 295.748 15.2314C295.421 15.8567 295.16 16.538 294.964 17.2754C294.777 18.0127 294.684 18.7967 294.684 19.6274C294.684 20.458 294.777 21.242 294.964 21.9794C295.16 22.7167 295.421 23.398 295.748 24.0234C296.084 24.6487 296.457 25.2087 296.868 25.7034L296 26.3194ZM298.331 24.1354V16.7714H299.451V17.7094H299.507C299.629 17.4854 299.792 17.2894 299.997 17.1214C300.203 16.944 300.436 16.804 300.697 16.7014C300.968 16.5987 301.253 16.5474 301.551 16.5474C302.046 16.5474 302.466 16.664 302.811 16.8974C303.157 17.1214 303.404 17.4294 303.553 17.8214C303.768 17.4387 304.067 17.1307 304.449 16.8974C304.841 16.664 305.294 16.5474 305.807 16.5474C306.535 16.5474 307.095 16.7714 307.487 17.2194C307.889 17.658 308.089 18.2554 308.089 19.0114V24.1354H306.927V19.2074C306.927 18.6567 306.801 18.2554 306.549 18.0034C306.307 17.742 305.957 17.6114 305.499 17.6114C305.173 17.6114 304.879 17.6954 304.617 17.8634C304.365 18.0314 304.165 18.26 304.015 18.5494C303.875 18.8387 303.805 19.1654 303.805 19.5294V24.1354H302.629V19.2214C302.629 18.6707 302.503 18.2647 302.251 18.0034C301.999 17.742 301.649 17.6114 301.201 17.6114C300.875 17.6114 300.581 17.7 300.319 17.8774C300.067 18.0454 299.867 18.2787 299.717 18.5774C299.577 18.8667 299.507 19.1934 299.507 19.5574V24.1354H298.331ZM313.169 24.3594C312.451 24.3594 311.825 24.196 311.293 23.8694C310.771 23.5334 310.365 23.0714 310.075 22.4834C309.786 21.8954 309.641 21.2187 309.641 20.4534C309.641 19.6787 309.786 19.002 310.075 18.4234C310.365 17.8354 310.771 17.378 311.293 17.0514C311.825 16.7154 312.451 16.5474 313.169 16.5474C313.888 16.5474 314.509 16.7154 315.031 17.0514C315.554 17.378 315.955 17.8354 316.235 18.4234C316.525 19.002 316.669 19.6787 316.669 20.4534C316.669 21.2187 316.525 21.8954 316.235 22.4834C315.955 23.0714 315.554 23.5334 315.031 23.8694C314.509 24.196 313.888 24.3594 313.169 24.3594ZM313.169 23.2814C313.627 23.2814 314.028 23.1694 314.373 22.9454C314.728 22.7214 315.003 22.3994 315.199 21.9794C315.395 21.5594 315.493 21.0507 315.493 20.4534C315.493 19.856 315.395 19.3474 315.199 18.9274C315.003 18.5074 314.728 18.1854 314.373 17.9614C314.028 17.7374 313.627 17.6254 313.169 17.6254C312.712 17.6254 312.306 17.7374 311.951 17.9614C311.597 18.1854 311.317 18.5074 311.111 18.9274C310.915 19.3474 310.817 19.856 310.817 20.4534C310.817 21.0507 310.915 21.5594 311.111 21.9794C311.317 22.3994 311.597 22.7214 311.951 22.9454C312.306 23.1694 312.712 23.2814 313.169 23.2814ZM319.907 24.1354L317.247 16.7714H318.479L320.523 22.7634H320.565L322.637 16.7714H323.827L321.139 24.1354H319.907ZM327.795 24.3594C327.104 24.3594 326.502 24.1914 325.989 23.8554C325.485 23.51 325.093 23.0434 324.813 22.4554C324.542 21.8674 324.407 21.2047 324.407 20.4674C324.407 19.7114 324.547 19.0394 324.827 18.4514C325.116 17.854 325.513 17.3874 326.017 17.0514C326.53 16.7154 327.118 16.5474 327.781 16.5474C328.49 16.5474 329.088 16.6874 329.573 16.9674C330.068 17.2474 330.446 17.6487 330.707 18.1714C330.968 18.6847 331.099 19.3007 331.099 20.0194C331.099 20.1407 331.094 20.262 331.085 20.3834C331.085 20.4954 331.08 20.5934 331.071 20.6774H325.583C325.602 21.1814 325.695 21.62 325.863 21.9934C326.05 22.4134 326.311 22.7354 326.647 22.9594C326.992 23.174 327.389 23.2814 327.837 23.2814C328.425 23.2814 328.868 23.16 329.167 22.9174C329.475 22.6654 329.699 22.3434 329.839 21.9514L330.875 22.2314C330.726 22.8287 330.394 23.3327 329.881 23.7434C329.377 24.154 328.682 24.3594 327.795 24.3594ZM325.639 19.6974H329.867C329.858 19.38 329.806 19.0954 329.713 18.8434C329.629 18.582 329.498 18.3627 329.321 18.1854C329.153 17.9987 328.938 17.8587 328.677 17.7654C328.425 17.6627 328.126 17.6114 327.781 17.6114C327.342 17.6114 326.955 17.7234 326.619 17.9474C326.292 18.162 326.04 18.4794 325.863 18.8994C325.76 19.1327 325.686 19.3987 325.639 19.6974ZM336.284 24.1354V13.2714H337.46V24.1354H336.284ZM342.397 24.3594C341.706 24.3594 341.104 24.1914 340.591 23.8554C340.087 23.51 339.695 23.0434 339.415 22.4554C339.144 21.8674 339.009 21.2047 339.009 20.4674C339.009 19.7114 339.149 19.0394 339.429 18.4514C339.718 17.854 340.115 17.3874 340.619 17.0514C341.132 16.7154 341.72 16.5474 342.383 16.5474C343.092 16.5474 343.689 16.6874 344.175 16.9674C344.669 17.2474 345.047 17.6487 345.309 18.1714C345.57 18.6847 345.701 19.3007 345.701 20.0194C345.701 20.1407 345.696 20.262 345.687 20.3834C345.687 20.4954 345.682 20.5934 345.673 20.6774H340.185C340.203 21.1814 340.297 21.62 340.465 21.9934C340.651 22.4134 340.913 22.7354 341.249 22.9594C341.594 23.174 341.991 23.2814 342.439 23.2814C343.027 23.2814 343.47 23.16 343.769 22.9174C344.077 22.6654 344.301 22.3434 344.441 21.9514L345.477 22.2314C345.327 22.8287 344.996 23.3327 344.483 23.7434C343.979 24.154 343.283 24.3594 342.397 24.3594ZM340.241 19.6974H344.469C344.459 19.38 344.408 19.0954 344.315 18.8434C344.231 18.582 344.1 18.3627 343.923 18.1854C343.755 17.9987 343.54 17.8587 343.279 17.7654C343.027 17.6627 342.728 17.6114 342.383 17.6114C341.944 17.6114 341.557 17.7234 341.221 17.9474C340.894 18.162 340.642 18.4794 340.465 18.8994C340.362 19.1327 340.287 19.3987 340.241 19.6974ZM346.565 17.8494V16.7714H347.825V15.2594C347.825 14.7927 347.918 14.396 348.105 14.0694C348.301 13.7427 348.567 13.4907 348.903 13.3134C349.239 13.136 349.612 13.0474 350.023 13.0474C350.266 13.0474 350.499 13.0754 350.723 13.1314C350.947 13.1874 351.101 13.234 351.185 13.2714V14.4194C351.101 14.3727 350.966 14.3167 350.779 14.2514C350.592 14.1767 350.364 14.1394 350.093 14.1394C349.888 14.1394 349.701 14.1814 349.533 14.2654C349.374 14.3494 349.244 14.48 349.141 14.6574C349.048 14.8347 349.001 15.0634 349.001 15.3434V16.7714H352.249V14.7554H353.425V16.7714H355.091V17.8494H353.425V22.0214C353.425 22.376 353.504 22.6514 353.663 22.8474C353.822 23.0434 354.06 23.1414 354.377 23.1414C354.536 23.1414 354.671 23.1227 354.783 23.0854C354.904 23.048 355.016 22.9967 355.119 22.9314V24.0794C354.998 24.126 354.867 24.1634 354.727 24.1914C354.587 24.2287 354.405 24.2474 354.181 24.2474C353.602 24.2474 353.136 24.0747 352.781 23.7294C352.426 23.3747 352.249 22.8847 352.249 22.2594V17.8494H349.001V24.1354H347.825V17.8494H346.565ZM356.99 26.3194L356.122 25.7034C356.533 25.2087 356.902 24.6487 357.228 24.0234C357.564 23.398 357.826 22.7167 358.012 21.9794C358.208 21.242 358.306 20.458 358.306 19.6274C358.306 18.7967 358.208 18.0127 358.012 17.2754C357.826 16.538 357.564 15.8567 357.228 15.2314C356.902 14.5967 356.533 14.0367 356.122 13.5514L356.99 12.9354C357.382 13.3834 357.77 13.9387 358.152 14.6014C358.535 15.2547 358.852 16.0014 359.104 16.8414C359.356 17.6814 359.482 18.61 359.482 19.6274C359.482 20.3927 359.408 21.1067 359.258 21.7694C359.118 22.432 358.922 23.048 358.67 23.6174C358.428 24.1774 358.162 24.6814 357.872 25.1294C357.583 25.5867 357.289 25.9834 356.99 26.3194Z" fill="#5F6368" />
<path d="M496.752 24.3594C496.117 24.3594 495.539 24.2427 495.016 24.0094C494.503 23.776 494.078 23.4354 493.742 22.9874C493.406 22.5394 493.182 21.9934 493.07 21.3494L494.274 21.0834C494.377 21.7087 494.633 22.222 495.044 22.6234C495.464 23.0247 496.043 23.2254 496.78 23.2254C497.228 23.2254 497.62 23.1554 497.956 23.0154C498.301 22.866 498.567 22.6607 498.754 22.3994C498.95 22.1287 499.048 21.816 499.048 21.4614C499.048 21.1067 498.964 20.8174 498.796 20.5934C498.637 20.3694 498.395 20.178 498.068 20.0194C497.741 19.8514 497.331 19.6927 496.836 19.5434L496.066 19.3054C495.693 19.1934 495.343 19.0627 495.016 18.9134C494.689 18.7547 494.4 18.568 494.148 18.3534C493.905 18.1387 493.714 17.882 493.574 17.5834C493.443 17.2847 493.378 16.9347 493.378 16.5334C493.378 16.0387 493.518 15.5954 493.798 15.2034C494.078 14.802 494.465 14.4847 494.96 14.2514C495.464 14.0087 496.038 13.8874 496.682 13.8874C497.382 13.8874 497.965 14.0087 498.432 14.2514C498.908 14.494 499.272 14.816 499.524 15.2174C499.785 15.6094 499.935 16.0387 499.972 16.5054L498.852 16.6734C498.787 16.3374 498.665 16.048 498.488 15.8054C498.311 15.5534 498.073 15.362 497.774 15.2314C497.485 15.0914 497.125 15.0214 496.696 15.0214C496.304 15.0214 495.945 15.0867 495.618 15.2174C495.301 15.3387 495.044 15.5114 494.848 15.7354C494.661 15.9594 494.568 16.2207 494.568 16.5194C494.568 16.9394 494.75 17.28 495.114 17.5414C495.487 17.8027 496.015 18.0407 496.696 18.2554L497.466 18.4934C497.821 18.6054 498.161 18.736 498.488 18.8854C498.824 19.0347 499.123 19.226 499.384 19.4594C499.645 19.6834 499.851 19.9587 500 20.2854C500.159 20.6027 500.238 20.9947 500.238 21.4614C500.238 21.9187 500.149 22.3294 499.972 22.6934C499.795 23.048 499.547 23.3514 499.23 23.6034C498.913 23.8554 498.539 24.042 498.11 24.1634C497.69 24.294 497.237 24.3594 496.752 24.3594ZM508.126 26.3194C507.837 25.9834 507.543 25.5867 507.244 25.1294C506.955 24.6814 506.684 24.1774 506.432 23.6174C506.189 23.048 505.993 22.432 505.844 21.7694C505.704 21.1067 505.634 20.3927 505.634 19.6274C505.634 18.862 505.704 18.148 505.844 17.4854C505.993 16.8227 506.189 16.2114 506.432 15.6514C506.684 15.082 506.955 14.5734 507.244 14.1254C507.543 13.668 507.837 13.2714 508.126 12.9354L508.994 13.5514C508.583 14.0367 508.21 14.5967 507.874 15.2314C507.547 15.8567 507.286 16.538 507.09 17.2754C506.903 18.0127 506.81 18.7967 506.81 19.6274C506.81 20.458 506.903 21.242 507.09 21.9794C507.286 22.7167 507.547 23.398 507.874 24.0234C508.21 24.6487 508.583 25.2087 508.994 25.7034L508.126 26.3194ZM513.971 24.3594C513.607 24.3594 513.271 24.2987 512.963 24.1774C512.655 24.0654 512.389 23.916 512.165 23.7294C511.941 23.5427 511.764 23.342 511.633 23.1274H511.577V24.1354H510.457V13.2714H511.633V16.7714L511.577 17.7794H511.633C511.764 17.5647 511.941 17.364 512.165 17.1774C512.389 16.9907 512.655 16.8414 512.963 16.7294C513.281 16.608 513.621 16.5474 513.985 16.5474C514.648 16.5474 515.222 16.7154 515.707 17.0514C516.202 17.378 516.585 17.8354 516.855 18.4234C517.126 19.002 517.261 19.6787 517.261 20.4534C517.261 21.2187 517.126 21.8954 516.855 22.4834C516.585 23.0714 516.202 23.5334 515.707 23.8694C515.213 24.196 514.634 24.3594 513.971 24.3594ZM513.845 23.2814C514.284 23.2814 514.671 23.174 515.007 22.9594C515.343 22.7354 515.605 22.4134 515.791 21.9934C515.987 21.5734 516.085 21.06 516.085 20.4534C516.085 19.8467 515.987 19.3334 515.791 18.9134C515.605 18.4934 515.343 18.176 515.007 17.9614C514.671 17.7374 514.284 17.6254 513.845 17.6254C513.407 17.6254 513.015 17.7374 512.669 17.9614C512.333 18.176 512.067 18.4934 511.871 18.9134C511.675 19.3334 511.577 19.8467 511.577 20.4534C511.577 21.06 511.675 21.5734 511.871 21.9934C512.067 22.4134 512.333 22.7354 512.669 22.9594C513.015 23.174 513.407 23.2814 513.845 23.2814ZM521.092 24.3594C520.588 24.3594 520.144 24.266 519.762 24.0794C519.379 23.8927 519.08 23.6314 518.866 23.2954C518.651 22.95 518.544 22.544 518.544 22.0774C518.544 21.5827 518.67 21.172 518.922 20.8454C519.183 20.5094 519.524 20.2574 519.944 20.0894C520.373 19.9214 520.835 19.8374 521.33 19.8374C521.619 19.8374 521.885 19.8514 522.128 19.8794C522.38 19.898 522.618 19.9307 522.842 19.9774C523.075 20.024 523.299 20.0847 523.514 20.1594V19.3474C523.514 18.8154 523.336 18.3954 522.982 18.0874C522.627 17.77 522.174 17.6114 521.624 17.6114C521.138 17.6114 520.737 17.7234 520.42 17.9474C520.102 18.162 519.883 18.484 519.762 18.9134L518.698 18.6474C518.782 18.2087 518.959 17.8354 519.23 17.5274C519.5 17.21 519.841 16.9674 520.252 16.7994C520.672 16.6314 521.129 16.5474 521.624 16.5474C522.585 16.5474 523.327 16.79 523.85 17.2754C524.382 17.7607 524.648 18.442 524.648 19.3194V24.1354H523.514V23.1694H523.458C523.327 23.356 523.154 23.5427 522.94 23.7294C522.725 23.916 522.464 24.0654 522.156 24.1774C521.857 24.2987 521.502 24.3594 521.092 24.3594ZM521.302 23.3234C521.731 23.3234 522.109 23.23 522.436 23.0434C522.772 22.8567 523.033 22.6 523.22 22.2734C523.416 21.9374 523.514 21.564 523.514 21.1534C523.168 21.0227 522.837 20.9294 522.52 20.8734C522.202 20.8174 521.876 20.7894 521.54 20.7894C521.008 20.7894 520.574 20.892 520.238 21.0974C519.911 21.2934 519.748 21.62 519.748 22.0774C519.748 22.4507 519.892 22.754 520.182 22.9874C520.48 23.2114 520.854 23.3234 521.302 23.3234ZM529.531 24.3594C528.841 24.3594 528.239 24.2007 527.725 23.8834C527.212 23.5567 526.811 23.0994 526.521 22.5114C526.241 21.9234 526.101 21.2374 526.101 20.4534C526.101 19.66 526.251 18.974 526.549 18.3954C526.848 17.8074 527.259 17.3547 527.781 17.0374C528.304 16.7107 528.901 16.5474 529.573 16.5474C530.46 16.5474 531.169 16.776 531.701 17.2334C532.233 17.6814 532.551 18.26 532.653 18.9694L531.519 19.1654C531.426 18.7174 531.211 18.3487 530.875 18.0594C530.549 17.77 530.11 17.6254 529.559 17.6254C529.111 17.6254 528.715 17.7374 528.369 17.9614C528.033 18.176 527.767 18.4934 527.571 18.9134C527.375 19.3334 527.277 19.8467 527.277 20.4534C527.277 21.0507 527.375 21.564 527.571 21.9934C527.767 22.4134 528.033 22.7354 528.369 22.9594C528.715 23.174 529.111 23.2814 529.559 23.2814C530.082 23.2814 530.502 23.1554 530.819 22.9034C531.137 22.642 531.37 22.2594 531.519 21.7554L532.597 22.0214C532.429 22.7214 532.084 23.286 531.561 23.7154C531.048 24.1447 530.371 24.3594 529.531 24.3594ZM534.219 24.1354V13.2714H535.395V20.1734L538.615 16.7714H540.001V16.8274L537.299 19.6414L540.001 24.0794V24.1354H538.699L536.487 20.4954L535.395 21.6294V24.1354H534.219ZM542.493 24.1354L540.379 16.7714H541.569L543.095 22.5394H543.109L544.775 16.7714H545.979L547.645 22.5254H547.659L549.185 16.7714H550.347L548.233 24.1354H547.057L545.349 18.1994L543.641 24.1354H542.493ZM553.658 24.3594C553.154 24.3594 552.711 24.266 552.328 24.0794C551.945 23.8927 551.647 23.6314 551.432 23.2954C551.217 22.95 551.11 22.544 551.11 22.0774C551.11 21.5827 551.236 21.172 551.488 20.8454C551.749 20.5094 552.09 20.2574 552.51 20.0894C552.939 19.9214 553.401 19.8374 553.896 19.8374C554.185 19.8374 554.451 19.8514 554.694 19.8794C554.946 19.898 555.184 19.9307 555.408 19.9774C555.641 20.024 555.865 20.0847 556.08 20.1594V19.3474C556.08 18.8154 555.903 18.3954 555.548 18.0874C555.193 17.77 554.741 17.6114 554.19 17.6114C553.705 17.6114 553.303 17.7234 552.986 17.9474C552.669 18.162 552.449 18.484 552.328 18.9134L551.264 18.6474C551.348 18.2087 551.525 17.8354 551.796 17.5274C552.067 17.21 552.407 16.9674 552.818 16.7994C553.238 16.6314 553.695 16.5474 554.19 16.5474C555.151 16.5474 555.893 16.79 556.416 17.2754C556.948 17.7607 557.214 18.442 557.214 19.3194V24.1354H556.08V23.1694H556.024C555.893 23.356 555.721 23.5427 555.506 23.7294C555.291 23.916 555.03 24.0654 554.722 24.1774C554.423 24.2987 554.069 24.3594 553.658 24.3594ZM553.868 23.3234C554.297 23.3234 554.675 23.23 555.002 23.0434C555.338 22.8567 555.599 22.6 555.786 22.2734C555.982 21.9374 556.08 21.564 556.08 21.1534C555.735 21.0227 555.403 20.9294 555.086 20.8734C554.769 20.8174 554.442 20.7894 554.106 20.7894C553.574 20.7894 553.14 20.892 552.804 21.0974C552.477 21.2934 552.314 21.62 552.314 22.0774C552.314 22.4507 552.459 22.754 552.748 22.9874C553.047 23.2114 553.42 23.3234 553.868 23.3234ZM559.17 24.1354V16.7714H560.29V17.7934H560.346C560.44 17.5507 560.584 17.336 560.78 17.1494C560.976 16.9627 561.2 16.818 561.452 16.7154C561.714 16.6127 561.98 16.5614 562.25 16.5614C562.428 16.5614 562.572 16.5707 562.684 16.5894C562.796 16.608 562.894 16.636 562.978 16.6734V17.9194C562.848 17.854 562.708 17.8074 562.558 17.7794C562.409 17.7514 562.255 17.7374 562.096 17.7374C561.77 17.7374 561.471 17.8307 561.2 18.0174C560.939 18.204 560.729 18.456 560.57 18.7734C560.421 19.0814 560.346 19.422 560.346 19.7954V24.1354H559.17ZM566.907 24.3594C566.244 24.3594 565.666 24.196 565.171 23.8694C564.676 23.5334 564.294 23.0714 564.023 22.4834C563.752 21.8954 563.617 21.2187 563.617 20.4534C563.617 19.6787 563.752 19.002 564.023 18.4234C564.294 17.8354 564.672 17.378 565.157 17.0514C565.652 16.7154 566.23 16.5474 566.893 16.5474C567.266 16.5474 567.607 16.608 567.915 16.7294C568.223 16.8414 568.489 16.9907 568.713 17.1774C568.937 17.364 569.11 17.5647 569.231 17.7794H569.287L569.231 16.7714V13.2714H570.407V24.1354H569.287V23.0994H569.231C569.11 23.314 568.937 23.5194 568.713 23.7154C568.489 23.9114 568.223 24.0654 567.915 24.1774C567.616 24.2987 567.28 24.3594 566.907 24.3594ZM567.033 23.2814C567.481 23.2814 567.873 23.174 568.209 22.9594C568.545 22.7447 568.806 22.4274 568.993 22.0074C569.189 21.578 569.287 21.06 569.287 20.4534C569.287 19.8374 569.189 19.3194 568.993 18.8994C568.806 18.4794 568.545 18.162 568.209 17.9474C567.873 17.7327 567.481 17.6254 567.033 17.6254C566.594 17.6254 566.202 17.7327 565.857 17.9474C565.521 18.162 565.26 18.4794 565.073 18.8994C564.886 19.3194 564.793 19.8374 564.793 20.4534C564.793 21.06 564.886 21.578 565.073 22.0074C565.26 22.4274 565.521 22.7447 565.857 22.9594C566.202 23.174 566.594 23.2814 567.033 23.2814ZM572.74 26.3194L571.872 25.7034C572.282 25.2087 572.651 24.6487 572.978 24.0234C573.314 23.398 573.575 22.7167 573.762 21.9794C573.958 21.242 574.056 20.458 574.056 19.6274C574.056 18.7967 573.958 18.0127 573.762 17.2754C573.575 16.538 573.314 15.8567 572.978 15.2314C572.651 14.5967 572.282 14.0367 571.872 13.5514L572.74 12.9354C573.132 13.3834 573.519 13.9387 573.902 14.6014C574.284 15.2547 574.602 16.0014 574.854 16.8414C575.106 17.6814 575.232 18.61 575.232 19.6274C575.232 20.3927 575.157 21.1067 575.008 21.7694C574.868 22.432 574.672 23.048 574.42 23.6174C574.177 24.1774 573.911 24.6814 573.622 25.1294C573.332 25.5867 573.038 25.9834 572.74 26.3194Z" fill="#5F6368" />
<path d="M704.347 24.1354V14.1114H707.693C708.664 14.1114 709.49 14.312 710.171 14.7134C710.853 15.1054 711.371 15.6747 711.725 16.4214C712.089 17.168 712.271 18.0687 712.271 19.1234C712.271 20.178 712.089 21.0787 711.725 21.8254C711.371 22.572 710.853 23.146 710.171 23.5474C709.49 23.9394 708.664 24.1354 707.693 24.1354H704.347ZM705.537 23.0014H707.679C708.389 23.0014 708.995 22.866 709.499 22.5954C710.003 22.3154 710.391 21.8907 710.661 21.3214C710.941 20.752 711.081 20.0194 711.081 19.1234C711.081 18.2274 710.941 17.4947 710.661 16.9254C710.391 16.3467 710.003 15.922 709.499 15.6514C708.995 15.3807 708.389 15.2454 707.679 15.2454H705.537V23.0014ZM720.169 26.3194C719.879 25.9834 719.585 25.5867 719.287 25.1294C718.997 24.6814 718.727 24.1774 718.475 23.6174C718.232 23.048 718.036 22.432 717.887 21.7694C717.747 21.1067 717.677 20.3927 717.677 19.6274C717.677 18.862 717.747 18.148 717.887 17.4854C718.036 16.8227 718.232 16.2114 718.475 15.6514C718.727 15.082 718.997 14.5734 719.287 14.1254C719.585 13.668 719.879 13.2714 720.169 12.9354L721.037 13.5514C720.626 14.0367 720.253 14.5967 719.917 15.2314C719.59 15.8567 719.329 16.538 719.133 17.2754C718.946 18.0127 718.853 18.7967 718.853 19.6274C718.853 20.458 718.946 21.242 719.133 21.9794C719.329 22.7167 719.59 23.398 719.917 24.0234C720.253 24.6487 720.626 25.2087 721.037 25.7034L720.169 26.3194ZM722.5 24.1354V16.7714H723.62V17.7094H723.676C723.797 17.4854 723.961 17.2894 724.166 17.1214C724.371 16.944 724.605 16.804 724.866 16.7014C725.137 16.5987 725.421 16.5474 725.72 16.5474C726.215 16.5474 726.635 16.664 726.98 16.8974C727.325 17.1214 727.573 17.4294 727.722 17.8214C727.937 17.4387 728.235 17.1307 728.618 16.8974C729.01 16.664 729.463 16.5474 729.976 16.5474C730.704 16.5474 731.264 16.7714 731.656 17.2194C732.057 17.658 732.258 18.2554 732.258 19.0114V24.1354H731.096V19.2074C731.096 18.6567 730.97 18.2554 730.718 18.0034C730.475 17.742 730.125 17.6114 729.668 17.6114C729.341 17.6114 729.047 17.6954 728.786 17.8634C728.534 18.0314 728.333 18.26 728.184 18.5494C728.044 18.8387 727.974 19.1654 727.974 19.5294V24.1354H726.798V19.2214C726.798 18.6707 726.672 18.2647 726.42 18.0034C726.168 17.742 725.818 17.6114 725.37 17.6114C725.043 17.6114 724.749 17.7 724.488 17.8774C724.236 18.0454 724.035 18.2787 723.886 18.5774C723.746 18.8667 723.676 19.1934 723.676 19.5574V24.1354H722.5ZM737.338 24.3594C736.62 24.3594 735.994 24.196 735.462 23.8694C734.94 23.5334 734.534 23.0714 734.244 22.4834C733.955 21.8954 733.81 21.2187 733.81 20.4534C733.81 19.6787 733.955 19.002 734.244 18.4234C734.534 17.8354 734.94 17.378 735.462 17.0514C735.994 16.7154 736.62 16.5474 737.338 16.5474C738.057 16.5474 738.678 16.7154 739.2 17.0514C739.723 17.378 740.124 17.8354 740.404 18.4234C740.694 19.002 740.838 19.6787 740.838 20.4534C740.838 21.2187 740.694 21.8954 740.404 22.4834C740.124 23.0714 739.723 23.5334 739.2 23.8694C738.678 24.196 738.057 24.3594 737.338 24.3594ZM737.338 23.2814C737.796 23.2814 738.197 23.1694 738.542 22.9454C738.897 22.7214 739.172 22.3994 739.368 21.9794C739.564 21.5594 739.662 21.0507 739.662 20.4534C739.662 19.856 739.564 19.3474 739.368 18.9274C739.172 18.5074 738.897 18.1854 738.542 17.9614C738.197 17.7374 737.796 17.6254 737.338 17.6254C736.881 17.6254 736.475 17.7374 736.12 17.9614C735.766 18.1854 735.486 18.5074 735.28 18.9274C735.084 19.3474 734.986 19.856 734.986 20.4534C734.986 21.0507 735.084 21.5594 735.28 21.9794C735.486 22.3994 735.766 22.7214 736.12 22.9454C736.475 23.1694 736.881 23.2814 737.338 23.2814ZM744.076 24.1354L741.416 16.7714H742.648L744.692 22.7634H744.734L746.806 16.7714H747.996L745.308 24.1354H744.076ZM751.964 24.3594C751.273 24.3594 750.671 24.1914 750.158 23.8554C749.654 23.51 749.262 23.0434 748.982 22.4554C748.711 21.8674 748.576 21.2047 748.576 20.4674C748.576 19.7114 748.716 19.0394 748.996 18.4514C749.285 17.854 749.682 17.3874 750.186 17.0514C750.699 16.7154 751.287 16.5474 751.95 16.5474C752.659 16.5474 753.256 16.6874 753.742 16.9674C754.236 17.2474 754.614 17.6487 754.876 18.1714C755.137 18.6847 755.268 19.3007 755.268 20.0194C755.268 20.1407 755.263 20.262 755.254 20.3834C755.254 20.4954 755.249 20.5934 755.24 20.6774H749.752C749.77 21.1814 749.864 21.62 750.032 21.9934C750.218 22.4134 750.48 22.7354 750.816 22.9594C751.161 23.174 751.558 23.2814 752.006 23.2814C752.594 23.2814 753.037 23.16 753.336 22.9174C753.644 22.6654 753.868 22.3434 754.008 21.9514L755.044 22.2314C754.894 22.8287 754.563 23.3327 754.05 23.7434C753.546 24.154 752.85 24.3594 751.964 24.3594ZM749.808 19.6974H754.036C754.026 19.38 753.975 19.0954 753.882 18.8434C753.798 18.582 753.667 18.3627 753.49 18.1854C753.322 17.9987 753.107 17.8587 752.846 17.7654C752.594 17.6627 752.295 17.6114 751.95 17.6114C751.511 17.6114 751.124 17.7234 750.788 17.9474C750.461 18.162 750.209 18.4794 750.032 18.8994C749.929 19.1327 749.854 19.3987 749.808 19.6974ZM760.453 24.1354V16.7714H761.573V17.7934H761.629C761.722 17.5507 761.867 17.336 762.063 17.1494C762.259 16.9627 762.483 16.818 762.735 16.7154C762.996 16.6127 763.262 16.5614 763.533 16.5614C763.71 16.5614 763.855 16.5707 763.967 16.5894C764.079 16.608 764.177 16.636 764.261 16.6734V17.9194C764.13 17.854 763.99 17.8074 763.841 17.7794C763.692 17.7514 763.538 17.7374 763.379 17.7374C763.052 17.7374 762.754 17.8307 762.483 18.0174C762.222 18.204 762.012 18.456 761.853 18.7734C761.704 19.0814 761.629 19.422 761.629 19.7954V24.1354H760.453ZM765.744 24.1354V16.7714H766.92V24.1354H765.744ZM766.332 14.9794C766.099 14.9794 765.898 14.8954 765.73 14.7274C765.562 14.5594 765.478 14.3587 765.478 14.1254C765.478 13.8827 765.562 13.682 765.73 13.5234C765.898 13.3554 766.099 13.2714 766.332 13.2714C766.575 13.2714 766.775 13.3554 766.934 13.5234C767.102 13.682 767.186 13.8827 767.186 14.1254C767.186 14.3587 767.102 14.5594 766.934 14.7274C766.775 14.8954 766.575 14.9794 766.332 14.9794ZM771.829 27.3834C771.269 27.3834 770.774 27.2807 770.345 27.0754C769.916 26.8794 769.566 26.618 769.295 26.2914C769.024 25.9647 768.847 25.6054 768.763 25.2134L769.869 24.9334C769.99 25.316 770.214 25.638 770.541 25.8994C770.868 26.17 771.297 26.3054 771.829 26.3054C772.557 26.3054 773.098 26.086 773.453 25.6474C773.817 25.218 773.999 24.6254 773.999 23.8694V22.7634H773.943C773.719 23.1647 773.411 23.4867 773.019 23.7294C772.627 23.9627 772.137 24.0794 771.549 24.0794C770.989 24.0794 770.471 23.9347 769.995 23.6454C769.528 23.356 769.15 22.9314 768.861 22.3714C768.581 21.8114 768.441 21.1254 768.441 20.3134C768.441 19.492 768.581 18.806 768.861 18.2554C769.15 17.6954 769.538 17.2707 770.023 16.9814C770.508 16.692 771.045 16.5474 771.633 16.5474C772.165 16.5474 772.632 16.664 773.033 16.8974C773.434 17.1214 773.738 17.4107 773.943 17.7654H773.999V16.7714H775.119V23.8834C775.119 24.6767 774.974 25.33 774.685 25.8434C774.405 26.366 774.018 26.7534 773.523 27.0054C773.028 27.2574 772.464 27.3834 771.829 27.3834ZM771.815 23.0014C772.216 23.0014 772.58 22.9034 772.907 22.7074C773.234 22.5114 773.495 22.2174 773.691 21.8254C773.896 21.424 773.999 20.92 773.999 20.3134C773.999 19.7067 773.896 19.2074 773.691 18.8154C773.495 18.414 773.234 18.1154 772.907 17.9194C772.58 17.7234 772.216 17.6254 771.815 17.6254C771.423 17.6254 771.059 17.7234 770.723 17.9194C770.387 18.1154 770.116 18.414 769.911 18.8154C769.706 19.2074 769.603 19.7067 769.603 20.3134C769.603 20.92 769.706 21.424 769.911 21.8254C770.116 22.2174 770.387 22.5114 770.723 22.7074C771.059 22.9034 771.423 23.0014 771.815 23.0014ZM777.147 24.1354V13.2714H778.323V16.7714L778.267 17.7794H778.323C778.509 17.4434 778.808 17.154 779.219 16.9114C779.629 16.6687 780.105 16.5474 780.647 16.5474C781.216 16.5474 781.692 16.664 782.075 16.8974C782.457 17.1307 782.747 17.4527 782.943 17.8634C783.148 18.274 783.251 18.75 783.251 19.2914V24.1354H782.075V19.3894C782.075 19.016 782.005 18.6987 781.865 18.4374C781.725 18.176 781.524 17.9754 781.263 17.8354C781.001 17.6954 780.689 17.6254 780.325 17.6254C779.942 17.6254 779.597 17.728 779.289 17.9334C778.99 18.1387 778.752 18.4094 778.575 18.7454C778.407 19.0814 778.323 19.4547 778.323 19.8654V24.1354H777.147ZM784.297 16.7714H785.459V14.7554H786.635V16.7714H788.301V17.8494H786.635V22.0214C786.635 22.376 786.714 22.6514 786.873 22.8474C787.032 23.0434 787.27 23.1414 787.587 23.1414C787.746 23.1414 787.881 23.1227 787.993 23.0854C788.114 23.048 788.226 22.9967 788.329 22.9314V24.0794C788.208 24.126 788.077 24.1634 787.937 24.1914C787.797 24.2287 787.615 24.2474 787.391 24.2474C786.812 24.2474 786.346 24.0747 785.991 23.7294C785.636 23.3747 785.459 22.8847 785.459 22.2594V17.8494H784.297V16.7714ZM790.21 26.3194L789.342 25.7034C789.753 25.2087 790.121 24.6487 790.448 24.0234C790.784 23.398 791.045 22.7167 791.232 21.9794C791.428 21.242 791.526 20.458 791.526 19.6274C791.526 18.7967 791.428 18.0127 791.232 17.2754C791.045 16.538 790.784 15.8567 790.448 15.2314C790.121 14.5967 789.753 14.0367 789.342 13.5514L790.21 12.9354C790.602 13.3834 790.989 13.9387 791.372 14.6014C791.755 15.2547 792.072 16.0014 792.324 16.8414C792.576 17.6814 792.702 18.61 792.702 19.6274C792.702 20.3927 792.627 21.1067 792.478 21.7694C792.338 22.432 792.142 23.048 791.89 23.6174C791.647 24.1774 791.381 24.6814 791.092 25.1294C790.803 25.5867 790.509 25.9834 790.21 26.3194Z" fill="#5F6368" />
<path d="M924.855 24.3594C924.22 24.3594 923.642 24.2427 923.119 24.0094C922.606 23.776 922.181 23.4354 921.845 22.9874C921.509 22.5394 921.285 21.9934 921.173 21.3494L922.377 21.0834C922.48 21.7087 922.736 22.222 923.147 22.6234C923.567 23.0247 924.146 23.2254 924.883 23.2254C925.331 23.2254 925.723 23.1554 926.059 23.0154C926.404 22.866 926.67 22.6607 926.857 22.3994C927.053 22.1287 927.151 21.816 927.151 21.4614C927.151 21.1067 927.067 20.8174 926.899 20.5934C926.74 20.3694 926.498 20.178 926.171 20.0194C925.844 19.8514 925.434 19.6927 924.939 19.5434L924.169 19.3054C923.796 19.1934 923.446 19.0627 923.119 18.9134C922.792 18.7547 922.503 18.568 922.251 18.3534C922.008 18.1387 921.817 17.882 921.677 17.5834C921.546 17.2847 921.481 16.9347 921.481 16.5334C921.481 16.0387 921.621 15.5954 921.901 15.2034C922.181 14.802 922.568 14.4847 923.063 14.2514C923.567 14.0087 924.141 13.8874 924.785 13.8874C925.485 13.8874 926.068 14.0087 926.535 14.2514C927.011 14.494 927.375 14.816 927.627 15.2174C927.888 15.6094 928.038 16.0387 928.075 16.5054L926.955 16.6734C926.89 16.3374 926.768 16.048 926.591 15.8054C926.414 15.5534 926.176 15.362 925.877 15.2314C925.588 15.0914 925.228 15.0214 924.799 15.0214C924.407 15.0214 924.048 15.0867 923.721 15.2174C923.404 15.3387 923.147 15.5114 922.951 15.7354C922.764 15.9594 922.671 16.2207 922.671 16.5194C922.671 16.9394 922.853 17.28 923.217 17.5414C923.59 17.8027 924.118 18.0407 924.799 18.2554L925.569 18.4934C925.924 18.6054 926.264 18.736 926.591 18.8854C926.927 19.0347 927.226 19.226 927.487 19.4594C927.748 19.6834 927.954 19.9587 928.103 20.2854C928.262 20.6027 928.341 20.9947 928.341 21.4614C928.341 21.9187 928.252 22.3294 928.075 22.6934C927.898 23.048 927.65 23.3514 927.333 23.6034C927.016 23.8554 926.642 24.042 926.213 24.1634C925.793 24.294 925.34 24.3594 924.855 24.3594ZM930.029 27.1594V16.7714H931.149V17.8494H931.205C931.336 17.616 931.513 17.4014 931.737 17.2054C931.97 17.0094 932.241 16.8507 932.549 16.7294C932.866 16.608 933.198 16.5474 933.543 16.5474C934.206 16.5474 934.784 16.7107 935.279 17.0374C935.774 17.364 936.156 17.8214 936.427 18.4094C936.698 18.9974 936.833 19.6787 936.833 20.4534C936.833 21.228 936.693 21.9094 936.413 22.4974C936.142 23.0854 935.76 23.5427 935.265 23.8694C934.78 24.196 934.206 24.3594 933.543 24.3594C932.974 24.3594 932.488 24.2427 932.087 24.0094C931.686 23.7667 931.392 23.4867 931.205 23.1694H931.149L931.205 24.1354V27.1594H930.029ZM933.417 23.2814C933.856 23.2814 934.243 23.174 934.579 22.9594C934.915 22.7447 935.176 22.4274 935.363 22.0074C935.559 21.578 935.657 21.06 935.657 20.4534C935.657 19.8374 935.559 19.3194 935.363 18.8994C935.176 18.4794 934.915 18.162 934.579 17.9474C934.243 17.7327 933.856 17.6254 933.417 17.6254C932.978 17.6254 932.586 17.7327 932.241 17.9474C931.905 18.162 931.639 18.4794 931.443 18.8994C931.247 19.3194 931.149 19.8374 931.149 20.4534C931.149 21.06 931.247 21.578 931.443 22.0074C931.639 22.4274 931.905 22.7447 932.241 22.9594C932.586 23.174 932.978 23.2814 933.417 23.2814ZM940.663 24.3594C940.159 24.3594 939.716 24.266 939.333 24.0794C938.951 23.8927 938.652 23.6314 938.437 23.2954C938.223 22.95 938.115 22.544 938.115 22.0774C938.115 21.5827 938.241 21.172 938.493 20.8454C938.755 20.5094 939.095 20.2574 939.515 20.0894C939.945 19.9214 940.407 19.8374 940.901 19.8374C941.191 19.8374 941.457 19.8514 941.699 19.8794C941.951 19.898 942.189 19.9307 942.413 19.9774C942.647 20.024 942.871 20.0847 943.085 20.1594V19.3474C943.085 18.8154 942.908 18.3954 942.553 18.0874C942.199 17.77 941.746 17.6114 941.195 17.6114C940.71 17.6114 940.309 17.7234 939.991 17.9474C939.674 18.162 939.455 18.484 939.333 18.9134L938.269 18.6474C938.353 18.2087 938.531 17.8354 938.801 17.5274C939.072 17.21 939.413 16.9674 939.823 16.7994C940.243 16.6314 940.701 16.5474 941.195 16.5474C942.157 16.5474 942.899 16.79 943.421 17.2754C943.953 17.7607 944.219 18.442 944.219 19.3194V24.1354H943.085V23.1694H943.029C942.899 23.356 942.726 23.5427 942.511 23.7294C942.297 23.916 942.035 24.0654 941.727 24.1774C941.429 24.2987 941.074 24.3594 940.663 24.3594ZM940.873 23.3234C941.303 23.3234 941.681 23.23 942.007 23.0434C942.343 22.8567 942.605 22.6 942.791 22.2734C942.987 21.9374 943.085 21.564 943.085 21.1534C942.74 21.0227 942.409 20.9294 942.091 20.8734C941.774 20.8174 941.447 20.7894 941.111 20.7894C940.579 20.7894 940.145 20.892 939.809 21.0974C939.483 21.2934 939.319 21.62 939.319 22.0774C939.319 22.4507 939.464 22.754 939.753 22.9874C940.052 23.2114 940.425 23.3234 940.873 23.3234ZM949.103 24.3594C948.413 24.3594 947.811 24.2007 947.297 23.8834C946.784 23.5567 946.383 23.0994 946.093 22.5114C945.813 21.9234 945.673 21.2374 945.673 20.4534C945.673 19.66 945.823 18.974 946.121 18.3954C946.42 17.8074 946.831 17.3547 947.353 17.0374C947.876 16.7107 948.473 16.5474 949.145 16.5474C950.032 16.5474 950.741 16.776 951.273 17.2334C951.805 17.6814 952.123 18.26 952.225 18.9694L951.091 19.1654C950.998 18.7174 950.783 18.3487 950.447 18.0594C950.121 17.77 949.682 17.6254 949.131 17.6254C948.683 17.6254 948.287 17.7374 947.941 17.9614C947.605 18.176 947.339 18.4934 947.143 18.9134C946.947 19.3334 946.849 19.8467 946.849 20.4534C946.849 21.0507 946.947 21.564 947.143 21.9934C947.339 22.4134 947.605 22.7354 947.941 22.9594C948.287 23.174 948.683 23.2814 949.131 23.2814C949.654 23.2814 950.074 23.1554 950.391 22.9034C950.709 22.642 950.942 22.2594 951.091 21.7554L952.169 22.0214C952.001 22.7214 951.656 23.286 951.133 23.7154C950.62 24.1447 949.943 24.3594 949.103 24.3594ZM956.676 24.3594C955.986 24.3594 955.384 24.1914 954.87 23.8554C954.366 23.51 953.974 23.0434 953.694 22.4554C953.424 21.8674 953.288 21.2047 953.288 20.4674C953.288 19.7114 953.428 19.0394 953.708 18.4514C953.998 17.854 954.394 17.3874 954.898 17.0514C955.412 16.7154 956 16.5474 956.662 16.5474C957.372 16.5474 957.969 16.6874 958.454 16.9674C958.949 17.2474 959.327 17.6487 959.588 18.1714C959.85 18.6847 959.98 19.3007 959.98 20.0194C959.98 20.1407 959.976 20.262 959.966 20.3834C959.966 20.4954 959.962 20.5934 959.952 20.6774H954.464C954.483 21.1814 954.576 21.62 954.744 21.9934C954.931 22.4134 955.192 22.7354 955.528 22.9594C955.874 23.174 956.27 23.2814 956.718 23.2814C957.306 23.2814 957.75 23.16 958.048 22.9174C958.356 22.6654 958.58 22.3434 958.72 21.9514L959.756 22.2314C959.607 22.8287 959.276 23.3327 958.762 23.7434C958.258 24.154 957.563 24.3594 956.676 24.3594ZM954.52 19.6974H958.748C958.739 19.38 958.688 19.0954 958.594 18.8434C958.51 18.582 958.38 18.3627 958.202 18.1854C958.034 17.9987 957.82 17.8587 957.558 17.7654C957.306 17.6627 957.008 17.6114 956.662 17.6114C956.224 17.6114 955.836 17.7234 955.5 17.9474C955.174 18.162 954.922 18.4794 954.744 18.8994C954.642 19.1327 954.567 19.3987 954.52 19.6974ZM967.784 26.3194C967.494 25.9834 967.2 25.5867 966.902 25.1294C966.612 24.6814 966.342 24.1774 966.09 23.6174C965.847 23.048 965.651 22.432 965.502 21.7694C965.362 21.1067 965.292 20.3927 965.292 19.6274C965.292 18.862 965.362 18.148 965.502 17.4854C965.651 16.8227 965.847 16.2114 966.09 15.6514C966.342 15.082 966.612 14.5734 966.902 14.1254C967.2 13.668 967.494 13.2714 967.784 12.9354L968.652 13.5514C968.241 14.0367 967.868 14.5967 967.532 15.2314C967.205 15.8567 966.944 16.538 966.748 17.2754C966.561 18.0127 966.468 18.7967 966.468 19.6274C966.468 20.458 966.561 21.242 966.748 21.9794C966.944 22.7167 967.205 23.398 967.532 24.0234C967.868 24.6487 968.241 25.2087 968.652 25.7034L967.784 26.3194ZM969.646 27.2994C969.516 27.2994 969.399 27.29 969.296 27.2714C969.184 27.2527 969.086 27.2294 969.002 27.2014V26.0814C969.077 26.1187 969.17 26.1514 969.282 26.1794C969.385 26.2167 969.483 26.2354 969.576 26.2354C969.866 26.2354 970.071 26.142 970.192 25.9554C970.314 25.778 970.374 25.5167 970.374 25.1714V16.7714H971.55V25.1574C971.55 25.652 971.471 26.058 971.312 26.3754C971.154 26.6927 970.93 26.926 970.64 27.0754C970.36 27.2247 970.029 27.2994 969.646 27.2994ZM970.962 14.9794C970.729 14.9794 970.528 14.8954 970.36 14.7274C970.192 14.5594 970.108 14.3587 970.108 14.1254C970.108 13.8827 970.192 13.682 970.36 13.5234C970.528 13.3554 970.729 13.2714 970.962 13.2714C971.205 13.2714 971.406 13.3554 971.564 13.5234C971.732 13.682 971.816 13.8827 971.816 14.1254C971.816 14.3587 971.732 14.5594 971.564 14.7274C971.406 14.8954 971.205 14.9794 970.962 14.9794ZM976.094 24.3594C975.273 24.3594 974.638 24.1167 974.19 23.6314C973.742 23.146 973.518 22.488 973.518 21.6574V16.7714H974.694V21.5034C974.694 22.1474 974.853 22.6047 975.17 22.8754C975.497 23.146 975.898 23.2814 976.374 23.2814C976.775 23.2814 977.116 23.188 977.396 23.0014C977.676 22.8054 977.891 22.5487 978.04 22.2314C978.199 21.914 978.278 21.5687 978.278 21.1954V16.7714H979.454V24.1354H978.334V23.1694H978.278C978.166 23.3934 978.003 23.5987 977.788 23.7854C977.573 23.9627 977.321 24.1027 977.032 24.2054C976.743 24.308 976.43 24.3594 976.094 24.3594ZM981.504 24.1354V16.7714H982.624V17.7094H982.68C982.801 17.4854 982.964 17.2894 983.17 17.1214C983.375 16.944 983.608 16.804 983.87 16.7014C984.14 16.5987 984.425 16.5474 984.724 16.5474C985.218 16.5474 985.638 16.664 985.984 16.8974C986.329 17.1214 986.576 17.4294 986.726 17.8214C986.94 17.4387 987.239 17.1307 987.622 16.8974C988.014 16.664 988.466 16.5474 988.98 16.5474C989.708 16.5474 990.268 16.7714 990.66 17.2194C991.061 17.658 991.262 18.2554 991.262 19.0114V24.1354H990.1V19.2074C990.1 18.6567 989.974 18.2554 989.722 18.0034C989.479 17.742 989.129 17.6114 988.672 17.6114C988.345 17.6114 988.051 17.6954 987.79 17.8634C987.538 18.0314 987.337 18.26 987.188 18.5494C987.048 18.8387 986.978 19.1654 986.978 19.5294V24.1354H985.802V19.2214C985.802 18.6707 985.676 18.2647 985.424 18.0034C985.172 17.742 984.822 17.6114 984.374 17.6114C984.047 17.6114 983.753 17.7 983.492 17.8774C983.24 18.0454 983.039 18.2787 982.89 18.5774C982.75 18.8667 982.68 19.1934 982.68 19.5574V24.1354H981.504ZM993.248 27.1594V16.7714H994.368V17.8494H994.424C994.554 17.616 994.732 17.4014 994.956 17.2054C995.189 17.0094 995.46 16.8507 995.768 16.7294C996.085 16.608 996.416 16.5474 996.762 16.5474C997.424 16.5474 998.003 16.7107 998.498 17.0374C998.992 17.364 999.375 17.8214 999.646 18.4094C999.916 18.9974 1000.05 19.6787 1000.05 20.4534C1000.05 21.228 999.912 21.9094 999.632 22.4974C999.361 23.0854 998.978 23.5427 998.484 23.8694C997.998 24.196 997.424 24.3594 996.762 24.3594C996.192 24.3594 995.707 24.2427 995.306 24.0094C994.904 23.7667 994.61 23.4867 994.424 23.1694H994.368L994.424 24.1354V27.1594H993.248ZM996.636 23.2814C997.074 23.2814 997.462 23.174 997.798 22.9594C998.134 22.7447 998.395 22.4274 998.582 22.0074C998.778 21.578 998.876 21.06 998.876 20.4534C998.876 19.8374 998.778 19.3194 998.582 18.8994C998.395 18.4794 998.134 18.162 997.798 17.9474C997.462 17.7327 997.074 17.6254 996.636 17.6254C996.197 17.6254 995.805 17.7327 995.46 17.9474C995.124 18.162 994.858 18.4794 994.662 18.8994C994.466 19.3194 994.368 19.8374 994.368 20.4534C994.368 21.06 994.466 21.578 994.662 22.0074C994.858 22.4274 995.124 22.7447 995.46 22.9594C995.805 23.174 996.197 23.2814 996.636 23.2814ZM1001.95 26.3194L1001.08 25.7034C1001.49 25.2087 1001.86 24.6487 1002.19 24.0234C1002.52 23.398 1002.79 22.7167 1002.97 21.9794C1003.17 21.242 1003.27 20.458 1003.27 19.6274C1003.27 18.7967 1003.17 18.0127 1002.97 17.2754C1002.79 16.538 1002.52 15.8567 1002.19 15.2314C1001.86 14.5967 1001.49 14.0367 1001.08 13.5514L1001.95 12.9354C1002.34 13.3834 1002.73 13.9387 1003.11 14.6014C1003.49 15.2547 1003.81 16.0014 1004.06 16.8414C1004.32 17.6814 1004.44 18.61 1004.44 19.6274C1004.44 20.3927 1004.37 21.1067 1004.22 21.7694C1004.08 22.432 1003.88 23.048 1003.63 23.6174C1003.39 24.1774 1003.12 24.6814 1002.83 25.1294C1002.54 25.5867 1002.25 25.9834 1001.95 26.3194Z" fill="#5F6368" />
</svg>