<svg xmlns="http://www.w3.org/2000/svg">
  <defs>
    <svg id="io-hamburger-open" viewBox="0 0 48 36" fill="none"><g clip-path="url(#clip0_1479_42515)"><path d="M0 18C0 8.05888 8.05888 0 18 0H30C39.9411 0 48 8.05888 48 18C48 27.9411 39.9411 36 30 36H18C8.05888 36 0 27.9411 0 18Z" fill="#F1F3F4" fill-opacity="0.08"/><path d="M18.075 21.7687V20.7937H29.925V21.7687H18.075ZM18.075 18.4875V17.5125H29.925V18.4875H18.075ZM18.075 15.2062V14.2312H29.925V15.2062H18.075Z" fill="#9AA0A6"/></g><defs><clipPath id="clip0_1479_42515"><path d="M0 18C0 8.05888 8.05888 0 18 0H30C39.9411 0 48 8.05888 48 18C48 27.9411 39.9411 36 30 36H18C8.05888 36 0 27.9411 0 18Z" fill="white"/></clipPath></defs></svg>
    <svg id="io-hamburger-close" viewBox="0 0 48 36" fill="none"><g clip-path="url(#clip0_1479_41906)"><path d="M0 18C0 8.05888 8.05888 0 18 0H30C39.9411 0 48 8.05888 48 18C48 27.9411 39.9411 36 30 36H18C8.05888 36 0 27.9411 0 18Z" fill="#060606" fill-opacity="0.01"/><path d="M20.4563 22.2375L19.7625 21.5437L23.3063 18L19.7625 14.4562L20.4563 13.7625L24 17.3062L27.5438 13.7625L28.2375 14.4562L24.6938 18L28.2375 21.5437L27.5438 22.2375L24 18.6937L20.4563 22.2375Z" fill="#9AA0A6"/></g><path d="M18 0.5H30C39.665 0.5 47.5 8.33502 47.5 18C47.5 27.665 39.665 35.5 30 35.5H18C8.33502 35.5 0.5 27.665 0.5 18C0.5 8.33502 8.33502 0.5 18 0.5Z" stroke="#F1F3F4" stroke-opacity="0.16"/><defs><clipPath id="clip0_1479_41906"><path d="M0 18C0 8.05888 8.05888 0 18 0H30C39.9411 0 48 8.05888 48 18C48 27.9411 39.9411 36 30 36H18C8.05888 36 0 27.9411 0 18Z" fill="white"/></clipPath></defs></svg>
    <svg id="io-siteswitcher-open" viewBox="0 0 24 16" fill="none"><g clip-path="url(#clip0_1479_44703)"><path d="M0 8C0 3.58172 3.58172 0 8 0H16C20.4183 0 24 3.58172 24 8C24 12.4183 20.4183 16 16 16H8C3.58172 16 0 12.4183 0 8Z" fill="#060606" fill-opacity="0.01"/><path d="M12 10.4937L7.7625 6.25625L8.45625 5.5625L12 9.10625L15.5438 5.5625L16.2375 6.25625L12 10.4937Z" fill="#9AA0A6"/></g><path d="M8 0.5H16C20.1421 0.5 23.5 3.85786 23.5 8C23.5 12.1421 20.1421 15.5 16 15.5H8C3.85786 15.5 0.5 12.1421 0.5 8C0.5 3.85786 3.85786 0.5 8 0.5Z" stroke="#F1F3F4" stroke-opacity="0.16"/><defs><clipPath id="clip0_1479_44703"><path d="M0 8C0 3.58172 3.58172 0 8 0H16C20.4183 0 24 3.58172 24 8C24 12.4183 20.4183 16 16 16H8C3.58172 16 0 12.4183 0 8Z" fill="white"/></clipPath></defs></svg>
    <svg id="io-siteswitcher-close" viewBox="0 0 24 16" fill="none"><path d="M8 0.5H16C20.1421 0.5 23.5 3.85786 23.5 8C23.5 12.1421 20.1421 15.5 16 15.5H8C3.85786 15.5 0.5 12.1421 0.5 8C0.5 3.85786 3.85786 0.5 8 0.5Z" stroke="#F1F3F4" stroke-opacity="0.16"/><path d="M12 7.17448L8.55469 10.6198L7.88021 9.94531L12 5.82552L16.1198 9.94531L15.4453 10.6198L12 7.17448Z" fill="#9AA0A6"/></svg>
    <svg id="io-mobile-accordion-open" viewBox="0 0 60 36" fill="none"><g clip-path="url(#clip0_1606_64965)"><path d="M0 18C0 8.05888 8.05888 0 18 0H42C51.9411 0 60 8.05888 60 18C60 27.9411 51.9411 36 42 36H18C8.05888 36 0 27.9411 0 18Z" fill="#F1F3F4" fill-opacity="0.08"/><path d="M30 21.05L24.35 15.4L25.4 14.35L30 18.95L34.6 14.35L35.65 15.4L30 21.05Z" fill="#F1F3F4"/></g><defs><clipPath id="clip0_1606_64965"><path d="M0 18C0 8.05888 8.05888 0 18 0H42C51.9411 0 60 8.05888 60 18C60 27.9411 51.9411 36 42 36H18C8.05888 36 0 27.9411 0 18Z" fill="white"/></clipPath></defs></svg>
    <svg id="io-mobile-accordion-close" viewBox="0 0 60 36" fill="none"><g clip-path="url(#clip0_1606_55404)"><path d="M0 18C0 8.05888 8.05888 0 18 0H42C51.9411 0 60 8.05888 60 18C60 27.9411 51.9411 36 42 36H18C8.05888 36 0 27.9411 0 18Z" fill="#060606" fill-opacity="0.01"/><path d="M30 16.45L25.4 21.05L24.35 20L30 14.35L35.65 20L34.6 21.05L30 16.45Z" fill="#F1F3F4"/></g><path d="M18 0.5H42C51.665 0.5 59.5 8.33502 59.5 18C59.5 27.665 51.665 35.5 42 35.5H18C8.33502 35.5 0.5 27.665 0.5 18C0.5 8.33502 8.33502 0.5 18 0.5Z" stroke="#F1F3F4" stroke-opacity="0.16"/><defs><clipPath id="clip0_1606_55404"><path d="M0 18C0 8.05888 8.05888 0 18 0H42C51.9411 0 60 8.05888 60 18C60 27.9411 51.9411 36 42 36H18C8.05888 36 0 27.9411 0 18Z" fill="white"/></clipPath></defs></svg>
    <svg id="io-tablet-accordion-open" viewBox="0 0 60 36" fill="none"><g clip-path="url(#clip0_1606_76048)"><path d="M0 18C0 8.05888 8.05888 0 18 0H42C51.9411 0 60 8.05888 60 18C60 27.9411 51.9411 36 42 36H18C8.05888 36 0 27.9411 0 18Z" fill="#F1F3F4" fill-opacity="0.08"/><path d="M30.95 18L26.35 13.4L27.4 12.35L33.05 18L27.4 23.65L26.35 22.6L30.95 18Z" fill="#F1F3F4"/></g><defs><clipPath id="clip0_1606_76048"><path d="M0 18C0 8.05888 8.05888 0 18 0H42C51.9411 0 60 8.05888 60 18C60 27.9411 51.9411 36 42 36H18C8.05888 36 0 27.9411 0 18Z" fill="white"/></clipPath></defs></svg>
    <svg id="io-tablet-accordion-close" viewBox="0 0 60 36" fill="none"><g clip-path="url(#clip0_1606_57621)"><path d="M0 18C0 8.05888 8.05888 0 18 0H42C51.9411 0 60 8.05888 60 18C60 27.9411 51.9411 36 42 36H18C8.05888 36 0 27.9411 0 18Z" fill="#060606" fill-opacity="0.01"/><path d="M32 23.65L26.35 18L32 12.35L33.05 13.4L28.45 18L33.05 22.6L32 23.65Z" fill="#F1F3F4"/></g><path d="M18 0.5H42C51.665 0.5 59.5 8.33502 59.5 18C59.5 27.665 51.665 35.5 42 35.5H18C8.33502 35.5 0.5 27.665 0.5 18C0.5 8.33502 8.33502 0.5 18 0.5Z" stroke="#F1F3F4" stroke-opacity="0.16"/><defs><clipPath id="clip0_1606_57621"><path d="M0 18C0 8.05888 8.05888 0 18 0H42C51.9411 0 60 8.05888 60 18C60 27.9411 51.9411 36 42 36H18C8.05888 36 0 27.9411 0 18Z" fill="white"/></clipPath></defs></svg>
  </defs>
</svg>
